G04 #@! TF.FileFunction,Copper,L2,Bot,Signal*
%FSLAX46Y46*%
G04 Gerber Fmt 4.6, Leading zero omitted, Abs format (unit mm)*
G04 Created by KiCad (PCBNEW (2015-12-07 BZR 6352)-product) date Fri 22 Apr 2016 06:39:40 PM EDT*
%MOMM*%
G01*
G04 APERTURE LIST*
%ADD10C,0.100000*%
%ADD11C,0.300000*%
%ADD12R,1.676400X1.676400*%
%ADD13C,1.676400*%
%ADD14R,3.500120X3.500120*%
%ADD15O,2.300000X1.600000*%
%ADD16R,1.400000X1.400000*%
%ADD17C,1.400000*%
%ADD18R,1.900000X2.000000*%
%ADD19C,1.900000*%
%ADD20O,1.600000X2.300000*%
%ADD21C,1.998980*%
%ADD22O,1.600000X1.600000*%
%ADD23R,2.032000X2.032000*%
%ADD24O,2.032000X2.032000*%
%ADD25C,4.064000*%
%ADD26C,1.270000*%
%ADD27C,0.431800*%
%ADD28C,0.508000*%
%ADD29C,0.635000*%
%ADD30C,0.254000*%
G04 APERTURE END LIST*
D10*
D11*
X121463223Y72849075D02*
X122996536Y75039522D01*
X124091760Y72849075D02*
X124091760Y77449015D01*
X122339402Y77449015D01*
X121901313Y77229970D01*
X121682268Y77010925D01*
X121463223Y76572836D01*
X121463223Y75915701D01*
X121682268Y75477612D01*
X121901313Y75258567D01*
X122339402Y75039522D01*
X124091760Y75039522D01*
X117739462Y73068120D02*
X118177552Y72849075D01*
X119053731Y72849075D01*
X119491820Y73068120D01*
X119710865Y73506209D01*
X119710865Y75258567D01*
X119491820Y75696657D01*
X119053731Y75915701D01*
X118177552Y75915701D01*
X117739462Y75696657D01*
X117520417Y75258567D01*
X117520417Y74820478D01*
X119710865Y74382388D01*
X115987104Y75915701D02*
X114891880Y72849075D01*
X113796656Y75915701D01*
X106130090Y72849075D02*
X108758627Y72849075D01*
X107444358Y72849075D02*
X107444358Y77449015D01*
X107882448Y76791880D01*
X108320537Y76353791D01*
X108758627Y76134746D01*
X101749195Y72849075D02*
X104377732Y72849075D01*
X103063463Y72849075D02*
X103063463Y77449015D01*
X103501553Y76791880D01*
X103939642Y76353791D01*
X104377732Y76134746D01*
D12*
X49530000Y81280000D03*
D13*
X49530000Y78740000D03*
X49530000Y73660000D03*
X49530000Y68580000D03*
X49530000Y66040000D03*
X57150000Y66040000D03*
X57150000Y68580000D03*
X57150000Y76200000D03*
X57150000Y78740000D03*
X57150000Y81280000D03*
D14*
X11430000Y31399480D03*
X11430000Y25400000D03*
X16129000Y28399740D03*
D15*
X82550000Y21350000D03*
X82550000Y18810000D03*
X82550000Y16270000D03*
X82550000Y13730000D03*
X82550000Y11190000D03*
X82550000Y8650000D03*
X82550000Y6110000D03*
X90170000Y6110000D03*
X90170000Y8650000D03*
X90170000Y11190000D03*
X90170000Y13730000D03*
X90170000Y16270000D03*
X90170000Y18810000D03*
X90170000Y21350000D03*
D12*
X80010000Y81280000D03*
D13*
X80010000Y78740000D03*
X80010000Y73660000D03*
X80010000Y68580000D03*
X80010000Y66040000D03*
X87630000Y66040000D03*
X87630000Y68580000D03*
X87630000Y76200000D03*
X87630000Y78740000D03*
X87630000Y81280000D03*
D15*
X31750000Y57150000D03*
X31750000Y54610000D03*
X31750000Y52070000D03*
X31750000Y49530000D03*
X31750000Y46990000D03*
X31750000Y44450000D03*
X31750000Y41910000D03*
X31750000Y39370000D03*
X39370000Y39370000D03*
X39370000Y41910000D03*
X39370000Y44450000D03*
X39370000Y46990000D03*
X39370000Y49530000D03*
X39370000Y52070000D03*
X39370000Y54610000D03*
X39370000Y57150000D03*
D16*
X77470000Y13730000D03*
D17*
X77470000Y8730000D03*
D16*
X77470000Y23890000D03*
D17*
X77470000Y28890000D03*
D16*
X38060000Y18970000D03*
D17*
X38060000Y13970000D03*
D16*
X60960000Y25400000D03*
D17*
X60960000Y30400000D03*
D16*
X90170000Y26430000D03*
D17*
X85170000Y26430000D03*
D18*
X62230000Y68580000D03*
D19*
X64770000Y68580000D03*
D18*
X62230000Y78740000D03*
D19*
X64770000Y78740000D03*
D20*
X55880000Y31750000D03*
X53340000Y31750000D03*
X50800000Y31750000D03*
X48260000Y31750000D03*
X45720000Y31750000D03*
X43180000Y31750000D03*
X40640000Y31750000D03*
X38100000Y31750000D03*
X35560000Y31750000D03*
X33020000Y31750000D03*
X30480000Y31750000D03*
X27940000Y31750000D03*
X25400000Y31750000D03*
X22860000Y31750000D03*
X22860000Y24130000D03*
X25400000Y24130000D03*
X27940000Y24130000D03*
X30480000Y24130000D03*
X33020000Y24130000D03*
X35560000Y24130000D03*
X38100000Y24130000D03*
X40640000Y24130000D03*
X43180000Y24130000D03*
X45720000Y24130000D03*
X48260000Y24130000D03*
X50800000Y24130000D03*
X53340000Y24130000D03*
X55880000Y24130000D03*
D21*
X80010000Y16270000D03*
X69850000Y16270000D03*
X80010000Y21350000D03*
X69850000Y21350000D03*
X36830000Y85090000D03*
X46990000Y85090000D03*
X59690000Y85090000D03*
X49530000Y85090000D03*
X67310000Y85090000D03*
X77470000Y85090000D03*
X90170000Y85090000D03*
X80010000Y85090000D03*
X62230000Y59690000D03*
X62230000Y49530000D03*
X64770000Y59690000D03*
X64770000Y49530000D03*
X104140000Y11430000D03*
X93980000Y11430000D03*
X120650000Y11430000D03*
X110490000Y11430000D03*
D22*
X96520000Y21590000D03*
X96520000Y16510000D03*
X104140000Y16510000D03*
X104140000Y21590000D03*
X113030000Y21590000D03*
X113030000Y16510000D03*
X120650000Y16510000D03*
X120650000Y21590000D03*
D20*
X43140000Y11430000D03*
X45680000Y11430000D03*
X48220000Y11430000D03*
X50760000Y11430000D03*
X50760000Y19050000D03*
X48220000Y19050000D03*
X45680000Y19050000D03*
X43140000Y19050000D03*
D15*
X49530000Y57150000D03*
X49530000Y54610000D03*
X49530000Y52070000D03*
X49530000Y49530000D03*
X49530000Y46990000D03*
X49530000Y44450000D03*
X49530000Y41910000D03*
X49530000Y39370000D03*
X57150000Y39370000D03*
X57150000Y41910000D03*
X57150000Y44450000D03*
X57150000Y46990000D03*
X57150000Y49530000D03*
X57150000Y52070000D03*
X57150000Y54610000D03*
X57150000Y57150000D03*
X69850000Y57150000D03*
X69850000Y54610000D03*
X69850000Y52070000D03*
X69850000Y49530000D03*
X69850000Y46990000D03*
X69850000Y44450000D03*
X69850000Y41910000D03*
X69850000Y39370000D03*
X77470000Y39370000D03*
X77470000Y41910000D03*
X77470000Y44450000D03*
X77470000Y46990000D03*
X77470000Y49530000D03*
X77470000Y52070000D03*
X77470000Y54610000D03*
X77470000Y57150000D03*
X87630000Y57150000D03*
X87630000Y54610000D03*
X87630000Y52070000D03*
X87630000Y49530000D03*
X87630000Y46990000D03*
X87630000Y44450000D03*
X87630000Y41910000D03*
X87630000Y39370000D03*
X95250000Y39370000D03*
X95250000Y41910000D03*
X95250000Y44450000D03*
X95250000Y46990000D03*
X95250000Y49530000D03*
X95250000Y52070000D03*
X95250000Y54610000D03*
X95250000Y57150000D03*
D12*
X39370000Y81280000D03*
D13*
X39370000Y78740000D03*
X39370000Y73660000D03*
X39370000Y68580000D03*
X39370000Y66040000D03*
X46990000Y66040000D03*
X46990000Y68580000D03*
X46990000Y76200000D03*
X46990000Y78740000D03*
X46990000Y81280000D03*
D12*
X69850000Y81280000D03*
D13*
X69850000Y78740000D03*
X69850000Y73660000D03*
X69850000Y68580000D03*
X69850000Y66040000D03*
X77470000Y66040000D03*
X77470000Y68580000D03*
X77470000Y76200000D03*
X77470000Y78740000D03*
X77470000Y81280000D03*
D21*
X58420000Y17780000D03*
X58420000Y7620000D03*
X55880000Y17780000D03*
X55880000Y7620000D03*
D23*
X45720000Y8890000D03*
D24*
X43180000Y8890000D03*
D25*
X121920000Y83820000D03*
X121920000Y5080000D03*
X5080000Y5080000D03*
X5080000Y83820000D03*
X5080000Y50800000D03*
X121920000Y50800000D03*
D17*
X36830000Y71120000D03*
X34290000Y67310000D03*
X43180000Y80010000D03*
X51519825Y68216546D03*
X52070000Y81280000D03*
X53340000Y78105000D03*
X67945000Y75565000D03*
X83820000Y39370000D03*
X74930000Y81280000D03*
X83820000Y81280000D03*
X82550000Y78740000D03*
X44450000Y20955000D03*
X41910000Y22225000D03*
D26*
X48220000Y11430000D02*
X50760000Y11430000D01*
X31750000Y39370000D02*
X31948620Y39370000D01*
X31948620Y39370000D02*
X33789010Y41210390D01*
X33789010Y41210390D02*
X33789010Y44299010D01*
X33789010Y44299010D02*
X39020000Y49530000D01*
X39020000Y49530000D02*
X39370000Y49530000D01*
X46990000Y85090000D02*
X45101509Y86978491D01*
X45101509Y86978491D02*
X35923523Y86978491D01*
X16129000Y31419800D02*
X16129000Y28399740D01*
X35923523Y86978491D02*
X16129000Y67183968D01*
X16129000Y67183968D02*
X16129000Y31419800D01*
X49530000Y85090000D02*
X46990000Y85090000D01*
X77470000Y85090000D02*
X75581509Y86978491D01*
X75581509Y86978491D02*
X51418491Y86978491D01*
X51418491Y86978491D02*
X49530000Y85090000D01*
X80010000Y85090000D02*
X77470000Y85090000D01*
X93980000Y11430000D02*
X95868491Y9541509D01*
X95868491Y9541509D02*
X108601509Y9541509D01*
X108601509Y9541509D02*
X110490000Y11430000D01*
X82550000Y6110000D02*
X84970000Y6110000D01*
X84970000Y6110000D02*
X86659010Y4420990D01*
X86659010Y4420990D02*
X91219610Y4420990D01*
X91219610Y4420990D02*
X93980000Y7181380D01*
X93980000Y7181380D02*
X93980000Y11430000D01*
X38060000Y13970000D02*
X27538680Y13970000D01*
X27538680Y13970000D02*
X16129000Y25379680D01*
X16129000Y25379680D02*
X16129000Y28399740D01*
X77470000Y28890000D02*
X87630000Y39050000D01*
X87630000Y39050000D02*
X87630000Y39370000D01*
X60960000Y30400000D02*
X75960000Y30400000D01*
X75960000Y30400000D02*
X77470000Y28890000D01*
X60960000Y30400000D02*
X60960000Y30480000D01*
X60960000Y30480000D02*
X69850000Y39370000D01*
X62230000Y49530000D02*
X64770000Y49530000D01*
X57150000Y49530000D02*
X62230000Y49530000D01*
X38100000Y31750000D02*
X38100000Y34170000D01*
X38100000Y34170000D02*
X43300000Y39370000D01*
X43300000Y39370000D02*
X49530000Y39370000D01*
X24079200Y39370000D02*
X31750000Y39370000D01*
X16129000Y31419800D02*
X24079200Y39370000D01*
X59890000Y29330000D02*
X40640000Y29330000D01*
X40640000Y29330000D02*
X40170000Y29330000D01*
X16129000Y28399740D02*
X39709740Y28399740D01*
X39709740Y28399740D02*
X40640000Y29330000D01*
X11430000Y25400000D02*
X13129260Y25400000D01*
X13129260Y25400000D02*
X16129000Y28399740D01*
X38060000Y13970000D02*
X41910000Y13970000D01*
X77470000Y8730000D02*
X75880999Y10319001D01*
X75880999Y10319001D02*
X75880999Y27300999D01*
X75880999Y27300999D02*
X77470000Y28890000D01*
X82550000Y6110000D02*
X80090000Y6110000D01*
X80090000Y6110000D02*
X77470000Y8730000D01*
X85170000Y26430000D02*
X85170000Y8380000D01*
X85170000Y8380000D02*
X82900000Y6110000D01*
X82900000Y6110000D02*
X82550000Y6110000D01*
X40170000Y29330000D02*
X40640000Y28860000D01*
X40640000Y28860000D02*
X40640000Y24130000D01*
X60960000Y30400000D02*
X59890000Y29330000D01*
X40170000Y29330000D02*
X38100000Y31400000D01*
X38100000Y31400000D02*
X38100000Y31750000D01*
D27*
X86700195Y43180000D02*
X88559805Y43180000D01*
D28*
X88900000Y43180000D02*
X88559805Y43180000D01*
X88900000Y43180000D02*
X92710000Y46990000D01*
X92710000Y46990000D02*
X95250000Y46990000D01*
X82938000Y43180000D02*
X86700195Y43180000D01*
X77470000Y46990000D02*
X79128000Y46990000D01*
X79128000Y46990000D02*
X82938000Y43180000D01*
D27*
X68920195Y43180000D02*
X70779805Y43180000D01*
D28*
X71120000Y43180000D02*
X70779805Y43180000D01*
X71120000Y43180000D02*
X74930000Y46990000D01*
X74930000Y46990000D02*
X77470000Y46990000D01*
X62618000Y43180000D02*
X68920195Y43180000D01*
X57150000Y46990000D02*
X58808000Y46990000D01*
X58808000Y46990000D02*
X62618000Y43180000D01*
D27*
X86700195Y40640000D02*
X88559805Y40640000D01*
D28*
X88900000Y40640000D02*
X88559805Y40640000D01*
X88900000Y40640000D02*
X92710000Y44450000D01*
X92710000Y44450000D02*
X95250000Y44450000D01*
X82938000Y40640000D02*
X86700195Y40640000D01*
X77470000Y44450000D02*
X79128000Y44450000D01*
X79128000Y44450000D02*
X82938000Y40640000D01*
D27*
X68920195Y40640000D02*
X70779805Y40640000D01*
D28*
X71120000Y40640000D02*
X70779805Y40640000D01*
X61310000Y40640000D02*
X68920195Y40640000D01*
X57500000Y44450000D02*
X61310000Y40640000D01*
X57150000Y44450000D02*
X57500000Y44450000D01*
X71120000Y40640000D02*
X74930000Y44450000D01*
X74930000Y44450000D02*
X77470000Y44450000D01*
D26*
X113030000Y21590000D02*
X120650000Y21590000D01*
X104140000Y21590000D02*
X113030000Y21590000D01*
X96520000Y21590000D02*
X104140000Y21590000D01*
X95250000Y41910000D02*
X95600000Y41910000D01*
X95600000Y41910000D02*
X97670000Y43980000D01*
X97670000Y43980000D02*
X97670000Y55080000D01*
X97670000Y55080000D02*
X95600000Y57150000D01*
X95600000Y57150000D02*
X95250000Y57150000D01*
X90170000Y26430000D02*
X90170000Y37180000D01*
X90170000Y37180000D02*
X94900000Y41910000D01*
X94900000Y41910000D02*
X95250000Y41910000D01*
X64770000Y68580000D02*
X64770000Y78740000D01*
X39370000Y41910000D02*
X39720000Y41910000D01*
X39720000Y41910000D02*
X41790000Y43980000D01*
X41790000Y43980000D02*
X41790000Y55080000D01*
X41790000Y55080000D02*
X39720000Y57150000D01*
X39720000Y57150000D02*
X39370000Y57150000D01*
X40640000Y31750000D02*
X40640000Y31948620D01*
X40640000Y31948620D02*
X42480390Y33789010D01*
X42480390Y33789010D02*
X48679010Y33789010D01*
X48679010Y33789010D02*
X56800000Y41910000D01*
X56800000Y41910000D02*
X57150000Y41910000D01*
X96520000Y21590000D02*
X90410000Y21590000D01*
X90410000Y21590000D02*
X90170000Y21350000D01*
X55880000Y7620000D02*
X58420000Y7620000D01*
X90170000Y26430000D02*
X90170000Y21350000D01*
X38060000Y18970000D02*
X43060000Y18970000D01*
X43060000Y18970000D02*
X43140000Y19050000D01*
X62230000Y59690000D02*
X62230000Y68580000D01*
D28*
X39370000Y73660000D02*
X36830000Y71120000D01*
X39370000Y73660000D02*
X44450000Y73660000D01*
X44450000Y73660000D02*
X46990000Y76200000D01*
X57150000Y76200000D02*
X56311801Y77038199D01*
X56311801Y77038199D02*
X56311801Y77585821D01*
X56311801Y77585821D02*
X55803799Y78093823D01*
X55803799Y78093823D02*
X55803799Y78663799D01*
X51638199Y74498199D02*
X55803799Y78663799D01*
X55803799Y82617291D02*
X58276508Y85090000D01*
X55803799Y78663799D02*
X55803799Y82617291D01*
X58276508Y85090000D02*
X59690000Y85090000D01*
X49530000Y73660000D02*
X50368199Y74498199D01*
X50368199Y74498199D02*
X51638199Y74498199D01*
X77470000Y76200000D02*
X72390000Y76200000D01*
X72390000Y76200000D02*
X69850000Y73660000D01*
X69850000Y73660000D02*
X71196201Y75006201D01*
X71196201Y75006201D02*
X71196201Y82617291D01*
X71196201Y82617291D02*
X68723492Y85090000D01*
X68723492Y85090000D02*
X67310000Y85090000D01*
X87630000Y76200000D02*
X82550000Y76200000D01*
X82550000Y76200000D02*
X80010000Y73660000D01*
X87630000Y76200000D02*
X86283799Y77546201D01*
X86283799Y77546201D02*
X86283799Y82617291D01*
X88756508Y85090000D02*
X90170000Y85090000D01*
X86283799Y82617291D02*
X88756508Y85090000D01*
X46990000Y78740000D02*
X42457622Y78740000D01*
X42457622Y78740000D02*
X31750000Y68032378D01*
X31750000Y68032378D02*
X31750000Y57150000D01*
X31750000Y54610000D02*
X33408000Y54610000D01*
X44838000Y66040000D02*
X46990000Y66040000D01*
X33408000Y54610000D02*
X44838000Y66040000D01*
D27*
X30820195Y55880000D02*
X32679805Y55880000D01*
D28*
X33020000Y55880000D02*
X32679805Y55880000D01*
X33020000Y55880000D02*
X39370000Y62230000D01*
X39370000Y62230000D02*
X39370000Y66040000D01*
X30480000Y55880000D02*
X30820195Y55880000D01*
X30091990Y55491990D02*
X30480000Y55880000D01*
X31750000Y52410195D02*
X30091990Y54068205D01*
X31750000Y52070000D02*
X31750000Y52410195D01*
X30091990Y54068205D02*
X30091990Y55491990D01*
X34290000Y67310000D02*
X38100000Y67310000D01*
X38100000Y67310000D02*
X39370000Y68580000D01*
X30092000Y48298000D02*
X29329979Y49060021D01*
X29329979Y49060021D02*
X29329979Y66707601D01*
X29329979Y66707601D02*
X40716201Y78093823D01*
X40716201Y78093823D02*
X40716200Y81280000D01*
X40716200Y81280000D02*
X39370000Y81280000D01*
X31750000Y46990000D02*
X31400000Y46990000D01*
X31400000Y46990000D02*
X30092000Y48298000D01*
X30092000Y48298000D02*
X31750000Y46990000D01*
X28320979Y67690979D02*
X39370000Y78740000D01*
X28320979Y47529021D02*
X28320979Y67690979D01*
X31750000Y44450000D02*
X31400000Y44450000D01*
X31400000Y44450000D02*
X28320979Y47529021D01*
X50459805Y40640000D02*
X52070000Y40640000D01*
X52070000Y40640000D02*
X54895000Y43465000D01*
X54895000Y43465000D02*
X54895000Y50165000D01*
X54895000Y50165000D02*
X56800000Y52070000D01*
X56800000Y52070000D02*
X57150000Y52070000D01*
D27*
X48600195Y40640000D02*
X50459805Y40640000D01*
D28*
X40990000Y40640000D02*
X48600195Y40640000D01*
X39370000Y39370000D02*
X39720000Y39370000D01*
X39720000Y39370000D02*
X40990000Y40640000D01*
X43180000Y80010000D02*
X45720000Y80010000D01*
X45720000Y80010000D02*
X46990000Y81280000D01*
X49530000Y57150000D02*
X49530000Y58458000D01*
X49530000Y58458000D02*
X53913001Y62841001D01*
X53913001Y62841001D02*
X53913001Y67883001D01*
X53913001Y67883001D02*
X58496201Y72466201D01*
X58496201Y72466201D02*
X58496201Y77393799D01*
X58496201Y77393799D02*
X57150000Y78740000D01*
X54729980Y63619980D02*
X57150000Y66040000D01*
X54729980Y59459980D02*
X54729980Y63619980D01*
X49880000Y54610000D02*
X54729980Y59459980D01*
X49530000Y54610000D02*
X49880000Y54610000D01*
X49530000Y52070000D02*
X49180000Y52070000D01*
X49180000Y52070000D02*
X47871990Y53378010D01*
X47871990Y53378010D02*
X47871990Y64381990D01*
X47871990Y64381990D02*
X49530000Y66040000D01*
X49530000Y68580000D02*
X51156371Y68580000D01*
X51156371Y68580000D02*
X51519825Y68216546D01*
X52070000Y81280000D02*
X49530000Y81280000D01*
X53340000Y78105000D02*
X50165000Y78105000D01*
X50165000Y78105000D02*
X49530000Y78740000D01*
X59258212Y79171788D02*
X57150000Y81280000D01*
X59258212Y72150566D02*
X59258212Y79171788D01*
X58496201Y71388555D02*
X59258212Y72150566D01*
X58496201Y65393823D02*
X58496201Y71388555D01*
X55491990Y62389612D02*
X58496201Y65393823D01*
X56800000Y54610000D02*
X55491990Y55918010D01*
X57150000Y54610000D02*
X56800000Y54610000D01*
X55491990Y55918010D02*
X55491990Y62389612D01*
X69850000Y57150000D02*
X69850000Y62952378D01*
X76123799Y72861421D02*
X78816201Y75553823D01*
X69850000Y62952378D02*
X76123799Y69226177D01*
X76123799Y69226177D02*
X76123799Y72861421D01*
X78816201Y75553823D02*
X78816201Y77393799D01*
X78816201Y77393799D02*
X77470000Y78740000D01*
X69850000Y54610000D02*
X70200000Y54610000D01*
X70200000Y54610000D02*
X77470000Y61880000D01*
X77470000Y61880000D02*
X77470000Y66040000D01*
X68199021Y58420000D02*
X68199021Y64389021D01*
X68191990Y58412969D02*
X68199021Y58420000D01*
X68199021Y56601174D02*
X68191990Y56608205D01*
X68191990Y56608205D02*
X68191990Y58412969D01*
X68191990Y55151795D02*
X68199021Y55158826D01*
X68199021Y64389021D02*
X69850000Y66040000D01*
X68191990Y54068205D02*
X68191990Y55151795D01*
X69850000Y52410195D02*
X68191990Y54068205D01*
X69850000Y52070000D02*
X69850000Y52410195D01*
X68199021Y55158826D02*
X68199021Y56601174D01*
X67437011Y66167011D02*
X69850000Y68580000D01*
X67437011Y58735636D02*
X67437011Y66167011D01*
X67429980Y58728605D02*
X67437011Y58735636D01*
X67429980Y53752569D02*
X67429980Y58728605D01*
X67437011Y53745538D02*
X67429980Y53752569D01*
X69500000Y49530000D02*
X67437011Y51592989D01*
X67437011Y51592989D02*
X67437011Y53745538D01*
X69850000Y49530000D02*
X69500000Y49530000D01*
X66675000Y59051271D02*
X66675000Y79451200D01*
X66667970Y49822030D02*
X66667970Y59044241D01*
X66667970Y59044241D02*
X66675000Y59051271D01*
X69850000Y46990000D02*
X69500000Y46990000D01*
X69500000Y46990000D02*
X66667970Y49822030D01*
X68503800Y81280000D02*
X69850000Y81280000D01*
X66675000Y79451200D02*
X68503800Y81280000D01*
X67945000Y75565000D02*
X67945000Y76835000D01*
X67945000Y76835000D02*
X69850000Y78740000D01*
X77470000Y39370000D02*
X83820000Y39370000D01*
X74930000Y81280000D02*
X77470000Y81280000D01*
X87630000Y57150000D02*
X87630000Y58458000D01*
X87630000Y58458000D02*
X88976201Y59804201D01*
X88976201Y59804201D02*
X88976201Y77393799D01*
X88976201Y77393799D02*
X87630000Y78740000D01*
X87630000Y54610000D02*
X87280000Y54610000D01*
X87280000Y54610000D02*
X85694295Y56195705D01*
X85694295Y56195705D02*
X85694295Y64104295D01*
X85694295Y64104295D02*
X87630000Y66040000D01*
X85972000Y52070000D02*
X80010000Y58032000D01*
X80010000Y58032000D02*
X80010000Y66040000D01*
X87630000Y52070000D02*
X85972000Y52070000D01*
D27*
X88559805Y53340000D02*
X86700195Y53340000D01*
D28*
X88900000Y53340000D02*
X88559805Y53340000D01*
X80010000Y68580000D02*
X84455000Y64135000D01*
X86360000Y53340000D02*
X86700195Y53340000D01*
X84455000Y64135000D02*
X84455000Y55245000D01*
X84455000Y55245000D02*
X86360000Y53340000D01*
X89288010Y52951990D02*
X88900000Y53340000D01*
X87630000Y49530000D02*
X87980000Y49530000D01*
X87980000Y49530000D02*
X89288010Y50838010D01*
X89288010Y50838010D02*
X89288010Y52951990D01*
X83820000Y81280000D02*
X80010000Y81280000D01*
X82550000Y78740000D02*
X80010000Y78740000D01*
X92710000Y56800000D02*
X92710000Y76200000D01*
X92710000Y76200000D02*
X87630000Y81280000D01*
X95250000Y54610000D02*
X94900000Y54610000D01*
X94900000Y54610000D02*
X92710000Y56800000D01*
D26*
X77470000Y13730000D02*
X80010000Y16270000D01*
X80010000Y16270000D02*
X82550000Y16270000D01*
X80010000Y21350000D02*
X77470000Y23890000D01*
X80010000Y21350000D02*
X82550000Y21350000D01*
D28*
X44450000Y20955000D02*
X25685000Y20955000D01*
X25685000Y20955000D02*
X22860000Y23780000D01*
X22860000Y23780000D02*
X22860000Y24130000D01*
X41910000Y22225000D02*
X26955000Y22225000D01*
X25400000Y23780000D02*
X25400000Y24130000D01*
X26955000Y22225000D02*
X25400000Y23780000D01*
D29*
X53340000Y20320000D02*
X53340000Y24130000D01*
X55880000Y17780000D02*
X53340000Y20320000D01*
X55880000Y17780000D02*
X52030000Y17780000D01*
X52030000Y17780000D02*
X50760000Y19050000D01*
X55880000Y20320000D02*
X55880000Y24130000D01*
X58420000Y17780000D02*
X55880000Y20320000D01*
X48220000Y19050000D02*
X51060991Y16209009D01*
X51060991Y16209009D02*
X56849009Y16209009D01*
X56849009Y16209009D02*
X58420000Y17780000D01*
X48220000Y19050000D02*
X48220000Y18700000D01*
D26*
X120650000Y11430000D02*
X120650000Y16510000D01*
X120650000Y16510000D02*
X113030000Y16510000D01*
D28*
X73557021Y10160000D02*
X73557021Y12562979D01*
X75032979Y8255000D02*
X75032979Y8684042D01*
X75032979Y8684042D02*
X73557021Y10160000D01*
X94082979Y3277979D02*
X80010000Y3277979D01*
X75032979Y8255000D02*
X80010000Y3277979D01*
X73557021Y12562979D02*
X69850000Y16270000D01*
X96520000Y5715000D02*
X94082979Y3277979D01*
X120650000Y11430000D02*
X114935000Y5715000D01*
X114935000Y5715000D02*
X96520000Y5715000D01*
D26*
X104140000Y11430000D02*
X104140000Y16510000D01*
X104140000Y16510000D02*
X96520000Y16510000D01*
X43180000Y8890000D02*
X43180000Y11390000D01*
X43180000Y11390000D02*
X43140000Y11430000D01*
X45720000Y8890000D02*
X45720000Y11390000D01*
X45720000Y11390000D02*
X45680000Y11430000D01*
D30*
G36*
X50599283Y15094348D02*
X51060991Y15002509D01*
X53213000Y15002509D01*
X53213000Y9017000D01*
X49617000Y9017000D01*
X49617000Y10246693D01*
X49835104Y9975500D01*
X50328181Y9705633D01*
X50410961Y9688096D01*
X50633000Y9810085D01*
X50633000Y11303000D01*
X50887000Y11303000D01*
X50887000Y9810085D01*
X51109039Y9688096D01*
X51191819Y9705633D01*
X51684896Y9975500D01*
X52037166Y10413517D01*
X52195000Y10953000D01*
X52195000Y11303000D01*
X50887000Y11303000D01*
X50633000Y11303000D01*
X50613000Y11303000D01*
X50613000Y11557000D01*
X50633000Y11557000D01*
X50633000Y13049915D01*
X50887000Y13049915D01*
X50887000Y11557000D01*
X52195000Y11557000D01*
X52195000Y11907000D01*
X52037166Y12446483D01*
X51684896Y12884500D01*
X51191819Y13154367D01*
X51109039Y13171904D01*
X50887000Y13049915D01*
X50633000Y13049915D01*
X50410961Y13171904D01*
X50328181Y13154367D01*
X49835104Y12884500D01*
X49617000Y12613307D01*
X49617000Y13970000D01*
X49606994Y14019410D01*
X49578553Y14061035D01*
X49536159Y14088315D01*
X49490000Y14097000D01*
X48260000Y14097000D01*
X48210590Y14086994D01*
X48168965Y14058553D01*
X48141685Y14016159D01*
X48133000Y13970000D01*
X48133000Y13215000D01*
X48092998Y13215000D01*
X48092998Y13049916D01*
X47870961Y13171904D01*
X47788181Y13154367D01*
X47295104Y12884500D01*
X47112615Y12657591D01*
X46874303Y13014249D01*
X46326352Y13380379D01*
X45680000Y13508946D01*
X45033648Y13380379D01*
X44485697Y13014249D01*
X44410000Y12900961D01*
X44334303Y13014249D01*
X43786352Y13380379D01*
X43140000Y13508946D01*
X42493648Y13380379D01*
X41945697Y13014249D01*
X41579567Y12466298D01*
X41451000Y11819946D01*
X41451000Y11040054D01*
X41579567Y10393702D01*
X41656000Y10279312D01*
X41656000Y10009517D01*
X41420009Y9656333D01*
X41275000Y8927321D01*
X41275000Y8852679D01*
X41420009Y8123667D01*
X41832962Y7505641D01*
X42450988Y7092688D01*
X43180000Y6947679D01*
X43909012Y7092688D01*
X44092924Y7215574D01*
X44351353Y7038997D01*
X44704000Y6967584D01*
X46736000Y6967584D01*
X47065444Y7029573D01*
X47368017Y7224274D01*
X47571003Y7521353D01*
X47642416Y7874000D01*
X47642416Y9785412D01*
X47788181Y9705633D01*
X47870961Y9688096D01*
X48092998Y9810084D01*
X48092998Y9645000D01*
X48133000Y9645000D01*
X48133000Y1397000D01*
X40727000Y1397000D01*
X40727000Y15113000D01*
X50571368Y15113000D01*
X50599283Y15094348D01*
X50599283Y15094348D01*
G37*
X50599283Y15094348D02*
X51060991Y15002509D01*
X53213000Y15002509D01*
X53213000Y9017000D01*
X49617000Y9017000D01*
X49617000Y10246693D01*
X49835104Y9975500D01*
X50328181Y9705633D01*
X50410961Y9688096D01*
X50633000Y9810085D01*
X50633000Y11303000D01*
X50887000Y11303000D01*
X50887000Y9810085D01*
X51109039Y9688096D01*
X51191819Y9705633D01*
X51684896Y9975500D01*
X52037166Y10413517D01*
X52195000Y10953000D01*
X52195000Y11303000D01*
X50887000Y11303000D01*
X50633000Y11303000D01*
X50613000Y11303000D01*
X50613000Y11557000D01*
X50633000Y11557000D01*
X50633000Y13049915D01*
X50887000Y13049915D01*
X50887000Y11557000D01*
X52195000Y11557000D01*
X52195000Y11907000D01*
X52037166Y12446483D01*
X51684896Y12884500D01*
X51191819Y13154367D01*
X51109039Y13171904D01*
X50887000Y13049915D01*
X50633000Y13049915D01*
X50410961Y13171904D01*
X50328181Y13154367D01*
X49835104Y12884500D01*
X49617000Y12613307D01*
X49617000Y13970000D01*
X49606994Y14019410D01*
X49578553Y14061035D01*
X49536159Y14088315D01*
X49490000Y14097000D01*
X48260000Y14097000D01*
X48210590Y14086994D01*
X48168965Y14058553D01*
X48141685Y14016159D01*
X48133000Y13970000D01*
X48133000Y13215000D01*
X48092998Y13215000D01*
X48092998Y13049916D01*
X47870961Y13171904D01*
X47788181Y13154367D01*
X47295104Y12884500D01*
X47112615Y12657591D01*
X46874303Y13014249D01*
X46326352Y13380379D01*
X45680000Y13508946D01*
X45033648Y13380379D01*
X44485697Y13014249D01*
X44410000Y12900961D01*
X44334303Y13014249D01*
X43786352Y13380379D01*
X43140000Y13508946D01*
X42493648Y13380379D01*
X41945697Y13014249D01*
X41579567Y12466298D01*
X41451000Y11819946D01*
X41451000Y11040054D01*
X41579567Y10393702D01*
X41656000Y10279312D01*
X41656000Y10009517D01*
X41420009Y9656333D01*
X41275000Y8927321D01*
X41275000Y8852679D01*
X41420009Y8123667D01*
X41832962Y7505641D01*
X42450988Y7092688D01*
X43180000Y6947679D01*
X43909012Y7092688D01*
X44092924Y7215574D01*
X44351353Y7038997D01*
X44704000Y6967584D01*
X46736000Y6967584D01*
X47065444Y7029573D01*
X47368017Y7224274D01*
X47571003Y7521353D01*
X47642416Y7874000D01*
X47642416Y9785412D01*
X47788181Y9705633D01*
X47870961Y9688096D01*
X48092998Y9810084D01*
X48092998Y9645000D01*
X48133000Y9645000D01*
X48133000Y1397000D01*
X40727000Y1397000D01*
X40727000Y15113000D01*
X50571368Y15113000D01*
X50599283Y15094348D01*
G36*
X49363000Y12613307D02*
X49144896Y12884500D01*
X48651819Y13154367D01*
X48569039Y13171904D01*
X48347000Y13049915D01*
X48347000Y11557000D01*
X48367000Y11557000D01*
X48367000Y11303000D01*
X48347000Y11303000D01*
X48347000Y9810085D01*
X48569039Y9688096D01*
X48651819Y9705633D01*
X49144896Y9975500D01*
X49363000Y10246693D01*
X49363000Y9017000D01*
X47642416Y9017000D01*
X47642416Y9785412D01*
X47788181Y9705633D01*
X47870961Y9688096D01*
X48093000Y9810085D01*
X48093000Y11303000D01*
X48073000Y11303000D01*
X48073000Y11557000D01*
X48093000Y11557000D01*
X48093000Y13049915D01*
X47870961Y13171904D01*
X47788181Y13154367D01*
X47295104Y12884500D01*
X47112615Y12657591D01*
X47077000Y12710892D01*
X47077000Y13843000D01*
X49363000Y13843000D01*
X49363000Y12613307D01*
X49363000Y12613307D01*
G37*
X49363000Y12613307D02*
X49144896Y12884500D01*
X48651819Y13154367D01*
X48569039Y13171904D01*
X48347000Y13049915D01*
X48347000Y11557000D01*
X48367000Y11557000D01*
X48367000Y11303000D01*
X48347000Y11303000D01*
X48347000Y9810085D01*
X48569039Y9688096D01*
X48651819Y9705633D01*
X49144896Y9975500D01*
X49363000Y10246693D01*
X49363000Y9017000D01*
X47642416Y9017000D01*
X47642416Y9785412D01*
X47788181Y9705633D01*
X47870961Y9688096D01*
X48093000Y9810085D01*
X48093000Y11303000D01*
X48073000Y11303000D01*
X48073000Y11557000D01*
X48093000Y11557000D01*
X48093000Y13049915D01*
X47870961Y13171904D01*
X47788181Y13154367D01*
X47295104Y12884500D01*
X47112615Y12657591D01*
X47077000Y12710892D01*
X47077000Y13843000D01*
X49363000Y13843000D01*
X49363000Y12613307D01*
M02*
