G04 #@! TF.FileFunction,Legend,Top*
%FSLAX46Y46*%
G04 Gerber Fmt 4.6, Leading zero omitted, Abs format (unit mm)*
G04 Created by KiCad (PCBNEW (2015-12-07 BZR 6352)-product) date Fri 22 Apr 2016 06:39:40 PM EDT*
%MOMM*%
G01*
G04 APERTURE LIST*
%ADD10C,0.100000*%
%ADD11C,0.150000*%
G04 APERTURE END LIST*
D10*
D11*
X51308000Y73660000D02*
X51308000Y79375000D01*
X51308000Y79375000D02*
X55372000Y79375000D01*
X55372000Y79375000D02*
X55372000Y67945000D01*
X55372000Y67945000D02*
X51308000Y67945000D01*
X51308000Y67945000D02*
X51308000Y73660000D01*
X51308000Y73660000D02*
X55372000Y73660000D01*
X48387000Y64262000D02*
X58293000Y64262000D01*
X58293000Y64262000D02*
X58293000Y83058000D01*
X58293000Y83058000D02*
X48387000Y83058000D01*
X48387000Y83058000D02*
X48387000Y64262000D01*
X6929120Y21198840D02*
X15930880Y21198840D01*
X6929120Y17698720D02*
X15930880Y17698720D01*
X15930880Y17698720D02*
X15930880Y32199580D01*
X15930880Y32199580D02*
X6929120Y32199580D01*
X6929120Y32199580D02*
X6929120Y17698720D01*
X82685000Y23645000D02*
X82685000Y22375000D01*
X90035000Y23645000D02*
X90035000Y22375000D01*
X90035000Y3815000D02*
X90035000Y5085000D01*
X82685000Y3815000D02*
X82685000Y5085000D01*
X82685000Y23645000D02*
X90035000Y23645000D01*
X82685000Y3815000D02*
X90035000Y3815000D01*
X82685000Y22375000D02*
X81400000Y22375000D01*
X81788000Y73660000D02*
X81788000Y79375000D01*
X81788000Y79375000D02*
X85852000Y79375000D01*
X85852000Y79375000D02*
X85852000Y67945000D01*
X85852000Y67945000D02*
X81788000Y67945000D01*
X81788000Y67945000D02*
X81788000Y73660000D01*
X81788000Y73660000D02*
X85852000Y73660000D01*
X78867000Y64262000D02*
X88773000Y64262000D01*
X88773000Y64262000D02*
X88773000Y83058000D01*
X88773000Y83058000D02*
X78867000Y83058000D01*
X78867000Y83058000D02*
X78867000Y64262000D01*
X31885000Y59445000D02*
X31885000Y58175000D01*
X39235000Y59445000D02*
X39235000Y58175000D01*
X39235000Y37075000D02*
X39235000Y38345000D01*
X31885000Y37075000D02*
X31885000Y38345000D01*
X31885000Y59445000D02*
X39235000Y59445000D01*
X31885000Y37075000D02*
X39235000Y37075000D01*
X31885000Y58175000D02*
X30600000Y58175000D01*
X79720000Y14230000D02*
X79720000Y8230000D01*
X75220000Y8230000D02*
X75220000Y14230000D01*
X75220000Y23390000D02*
X75220000Y29390000D01*
X79720000Y29390000D02*
X79720000Y23390000D01*
X40310000Y19470000D02*
X40310000Y13470000D01*
X35810000Y13470000D02*
X35810000Y19470000D01*
X58710000Y24900000D02*
X58710000Y30900000D01*
X63210000Y30900000D02*
X63210000Y24900000D01*
X90670000Y24180000D02*
X84670000Y24180000D01*
X84670000Y28680000D02*
X90670000Y28680000D01*
X61015112Y67055096D02*
G75*
G03X61000000Y70080000I2484888J1524904D01*
G01*
X61000000Y67080000D02*
X61000000Y70080000D01*
X66017936Y68580000D02*
G75*
G03X66017936Y68580000I-2517936J0D01*
G01*
X61015112Y77215096D02*
G75*
G03X61000000Y80240000I2484888J1524904D01*
G01*
X61000000Y77240000D02*
X61000000Y80240000D01*
X66017936Y78740000D02*
G75*
G03X66017936Y78740000I-2517936J0D01*
G01*
X58175000Y31615000D02*
X56905000Y31615000D01*
X58175000Y24265000D02*
X56905000Y24265000D01*
X20565000Y24265000D02*
X21835000Y24265000D01*
X20565000Y31615000D02*
X21835000Y31615000D01*
X58175000Y31615000D02*
X58175000Y24265000D01*
X20565000Y31615000D02*
X20565000Y24265000D01*
X56905000Y31615000D02*
X56905000Y32900000D01*
X77470000Y15000000D02*
X72390000Y15000000D01*
X72390000Y15000000D02*
X72390000Y17540000D01*
X72390000Y17540000D02*
X77470000Y17540000D01*
X77470000Y17540000D02*
X77470000Y15000000D01*
X77470000Y16270000D02*
X78740000Y16270000D01*
X72390000Y16270000D02*
X71120000Y16270000D01*
X77470000Y20080000D02*
X72390000Y20080000D01*
X72390000Y20080000D02*
X72390000Y22620000D01*
X72390000Y22620000D02*
X77470000Y22620000D01*
X77470000Y22620000D02*
X77470000Y20080000D01*
X77470000Y21350000D02*
X78740000Y21350000D01*
X72390000Y21350000D02*
X71120000Y21350000D01*
X39370000Y86360000D02*
X44450000Y86360000D01*
X44450000Y86360000D02*
X44450000Y83820000D01*
X44450000Y83820000D02*
X39370000Y83820000D01*
X39370000Y83820000D02*
X39370000Y86360000D01*
X39370000Y85090000D02*
X38100000Y85090000D01*
X44450000Y85090000D02*
X45720000Y85090000D01*
X57150000Y83820000D02*
X52070000Y83820000D01*
X52070000Y83820000D02*
X52070000Y86360000D01*
X52070000Y86360000D02*
X57150000Y86360000D01*
X57150000Y86360000D02*
X57150000Y83820000D01*
X57150000Y85090000D02*
X58420000Y85090000D01*
X52070000Y85090000D02*
X50800000Y85090000D01*
X69850000Y86360000D02*
X74930000Y86360000D01*
X74930000Y86360000D02*
X74930000Y83820000D01*
X74930000Y83820000D02*
X69850000Y83820000D01*
X69850000Y83820000D02*
X69850000Y86360000D01*
X69850000Y85090000D02*
X68580000Y85090000D01*
X74930000Y85090000D02*
X76200000Y85090000D01*
X87630000Y83820000D02*
X82550000Y83820000D01*
X82550000Y83820000D02*
X82550000Y86360000D01*
X82550000Y86360000D02*
X87630000Y86360000D01*
X87630000Y86360000D02*
X87630000Y83820000D01*
X87630000Y85090000D02*
X88900000Y85090000D01*
X82550000Y85090000D02*
X81280000Y85090000D01*
X63500000Y57150000D02*
X63500000Y52070000D01*
X63500000Y52070000D02*
X60960000Y52070000D01*
X60960000Y52070000D02*
X60960000Y57150000D01*
X60960000Y57150000D02*
X63500000Y57150000D01*
X62230000Y57150000D02*
X62230000Y58420000D01*
X62230000Y52070000D02*
X62230000Y50800000D01*
X66040000Y57150000D02*
X66040000Y52070000D01*
X66040000Y52070000D02*
X63500000Y52070000D01*
X63500000Y52070000D02*
X63500000Y57150000D01*
X63500000Y57150000D02*
X66040000Y57150000D01*
X64770000Y57150000D02*
X64770000Y58420000D01*
X64770000Y52070000D02*
X64770000Y50800000D01*
X101600000Y10160000D02*
X96520000Y10160000D01*
X96520000Y10160000D02*
X96520000Y12700000D01*
X96520000Y12700000D02*
X101600000Y12700000D01*
X101600000Y12700000D02*
X101600000Y10160000D01*
X101600000Y11430000D02*
X102870000Y11430000D01*
X96520000Y11430000D02*
X95250000Y11430000D01*
X118110000Y10160000D02*
X113030000Y10160000D01*
X113030000Y10160000D02*
X113030000Y12700000D01*
X113030000Y12700000D02*
X118110000Y12700000D01*
X118110000Y12700000D02*
X118110000Y10160000D01*
X118110000Y11430000D02*
X119380000Y11430000D01*
X113030000Y11430000D02*
X111760000Y11430000D01*
X96655000Y23885000D02*
X96655000Y22615000D01*
X104005000Y23885000D02*
X104005000Y22615000D01*
X104005000Y16755000D02*
X104005000Y18025000D01*
X96655000Y16755000D02*
X96655000Y18025000D01*
X96655000Y23885000D02*
X104005000Y23885000D01*
X96655000Y16755000D02*
X104005000Y16755000D01*
X96655000Y22615000D02*
X95720000Y22615000D01*
X113165000Y23885000D02*
X113165000Y22615000D01*
X120515000Y23885000D02*
X120515000Y22615000D01*
X120515000Y16755000D02*
X120515000Y18025000D01*
X113165000Y16755000D02*
X113165000Y18025000D01*
X113165000Y23885000D02*
X120515000Y23885000D01*
X113165000Y16755000D02*
X120515000Y16755000D01*
X113165000Y22615000D02*
X112230000Y22615000D01*
X40845000Y11565000D02*
X42115000Y11565000D01*
X40845000Y18915000D02*
X42115000Y18915000D01*
X53055000Y18915000D02*
X51785000Y18915000D01*
X53055000Y11565000D02*
X51785000Y11565000D01*
X40845000Y11565000D02*
X40845000Y18915000D01*
X53055000Y11565000D02*
X53055000Y18915000D01*
X42115000Y11565000D02*
X42115000Y10280000D01*
X49665000Y59445000D02*
X49665000Y58175000D01*
X57015000Y59445000D02*
X57015000Y58175000D01*
X57015000Y37075000D02*
X57015000Y38345000D01*
X49665000Y37075000D02*
X49665000Y38345000D01*
X49665000Y59445000D02*
X57015000Y59445000D01*
X49665000Y37075000D02*
X57015000Y37075000D01*
X49665000Y58175000D02*
X48380000Y58175000D01*
X69985000Y59445000D02*
X69985000Y58175000D01*
X77335000Y59445000D02*
X77335000Y58175000D01*
X77335000Y37075000D02*
X77335000Y38345000D01*
X69985000Y37075000D02*
X69985000Y38345000D01*
X69985000Y59445000D02*
X77335000Y59445000D01*
X69985000Y37075000D02*
X77335000Y37075000D01*
X69985000Y58175000D02*
X68700000Y58175000D01*
X87765000Y59445000D02*
X87765000Y58175000D01*
X95115000Y59445000D02*
X95115000Y58175000D01*
X95115000Y37075000D02*
X95115000Y38345000D01*
X87765000Y37075000D02*
X87765000Y38345000D01*
X87765000Y59445000D02*
X95115000Y59445000D01*
X87765000Y37075000D02*
X95115000Y37075000D01*
X87765000Y58175000D02*
X86480000Y58175000D01*
X41148000Y73660000D02*
X41148000Y79375000D01*
X41148000Y79375000D02*
X45212000Y79375000D01*
X45212000Y79375000D02*
X45212000Y67945000D01*
X45212000Y67945000D02*
X41148000Y67945000D01*
X41148000Y67945000D02*
X41148000Y73660000D01*
X41148000Y73660000D02*
X45212000Y73660000D01*
X38227000Y64262000D02*
X48133000Y64262000D01*
X48133000Y64262000D02*
X48133000Y83058000D01*
X48133000Y83058000D02*
X38227000Y83058000D01*
X38227000Y83058000D02*
X38227000Y64262000D01*
X71628000Y73660000D02*
X71628000Y79375000D01*
X71628000Y79375000D02*
X75692000Y79375000D01*
X75692000Y79375000D02*
X75692000Y67945000D01*
X75692000Y67945000D02*
X71628000Y67945000D01*
X71628000Y67945000D02*
X71628000Y73660000D01*
X71628000Y73660000D02*
X75692000Y73660000D01*
X68707000Y64262000D02*
X78613000Y64262000D01*
X78613000Y64262000D02*
X78613000Y83058000D01*
X78613000Y83058000D02*
X68707000Y83058000D01*
X68707000Y83058000D02*
X68707000Y64262000D01*
X59690000Y15240000D02*
X59690000Y10160000D01*
X59690000Y10160000D02*
X57150000Y10160000D01*
X57150000Y10160000D02*
X57150000Y15240000D01*
X57150000Y15240000D02*
X59690000Y15240000D01*
X58420000Y15240000D02*
X58420000Y16510000D01*
X58420000Y10160000D02*
X58420000Y8890000D01*
X57150000Y15240000D02*
X57150000Y10160000D01*
X57150000Y10160000D02*
X54610000Y10160000D01*
X54610000Y10160000D02*
X54610000Y15240000D01*
X54610000Y15240000D02*
X57150000Y15240000D01*
X55880000Y15240000D02*
X55880000Y16510000D01*
X55880000Y10160000D02*
X55880000Y8890000D01*
X44450000Y7620000D02*
X41910000Y7620000D01*
X47270000Y7340000D02*
X45720000Y7340000D01*
X44450000Y7620000D02*
X44450000Y10160000D01*
X45720000Y10440000D02*
X47270000Y10440000D01*
X47270000Y10440000D02*
X47270000Y7340000D01*
X44450000Y10160000D02*
X41910000Y10160000D01*
X41910000Y10160000D02*
X41910000Y7620000D01*
X124206000Y83820000D02*
G75*
G03X124206000Y83820000I-2286000J0D01*
G01*
X124206000Y5080000D02*
G75*
G03X124206000Y5080000I-2286000J0D01*
G01*
X7366000Y5080000D02*
G75*
G03X7366000Y5080000I-2286000J0D01*
G01*
X7366000Y83820000D02*
G75*
G03X7366000Y83820000I-2286000J0D01*
G01*
X7366000Y50800000D02*
G75*
G03X7366000Y50800000I-2286000J0D01*
G01*
X124206000Y50800000D02*
G75*
G03X124206000Y50800000I-2286000J0D01*
G01*
X52578095Y62777619D02*
X52578095Y61968095D01*
X52625714Y61872857D01*
X52673333Y61825238D01*
X52768571Y61777619D01*
X52959048Y61777619D01*
X53054286Y61825238D01*
X53101905Y61872857D01*
X53149524Y61968095D01*
X53149524Y62777619D01*
X53768571Y62349048D02*
X53673333Y62396667D01*
X53625714Y62444286D01*
X53578095Y62539524D01*
X53578095Y62587143D01*
X53625714Y62682381D01*
X53673333Y62730000D01*
X53768571Y62777619D01*
X53959048Y62777619D01*
X54054286Y62730000D01*
X54101905Y62682381D01*
X54149524Y62587143D01*
X54149524Y62539524D01*
X54101905Y62444286D01*
X54054286Y62396667D01*
X53959048Y62349048D01*
X53768571Y62349048D01*
X53673333Y62301429D01*
X53625714Y62253810D01*
X53578095Y62158571D01*
X53578095Y61968095D01*
X53625714Y61872857D01*
X53673333Y61825238D01*
X53768571Y61777619D01*
X53959048Y61777619D01*
X54054286Y61825238D01*
X54101905Y61872857D01*
X54149524Y61968095D01*
X54149524Y62158571D01*
X54101905Y62253810D01*
X54054286Y62301429D01*
X53959048Y62349048D01*
X10215715Y34941237D02*
X10168096Y34893618D01*
X10025239Y34845999D01*
X9930001Y34845999D01*
X9787143Y34893618D01*
X9691905Y34988856D01*
X9644286Y35084094D01*
X9596667Y35274570D01*
X9596667Y35417428D01*
X9644286Y35607904D01*
X9691905Y35703142D01*
X9787143Y35798380D01*
X9930001Y35845999D01*
X10025239Y35845999D01*
X10168096Y35798380D01*
X10215715Y35750761D01*
X10834762Y35845999D02*
X11025239Y35845999D01*
X11120477Y35798380D01*
X11215715Y35703142D01*
X11263334Y35512666D01*
X11263334Y35179332D01*
X11215715Y34988856D01*
X11120477Y34893618D01*
X11025239Y34845999D01*
X10834762Y34845999D01*
X10739524Y34893618D01*
X10644286Y34988856D01*
X10596667Y35179332D01*
X10596667Y35512666D01*
X10644286Y35703142D01*
X10739524Y35798380D01*
X10834762Y35845999D01*
X11691905Y34845999D02*
X11691905Y35845999D01*
X12263334Y34845999D01*
X12263334Y35845999D01*
X13263334Y34845999D02*
X12691905Y34845999D01*
X12977619Y34845999D02*
X12977619Y35845999D01*
X12882381Y35703142D01*
X12787143Y35607904D01*
X12691905Y35560285D01*
X81788095Y27117619D02*
X81788095Y26308095D01*
X81835714Y26212857D01*
X81883333Y26165238D01*
X81978571Y26117619D01*
X82169048Y26117619D01*
X82264286Y26165238D01*
X82311905Y26212857D01*
X82359524Y26308095D01*
X82359524Y27117619D01*
X82788095Y27022381D02*
X82835714Y27070000D01*
X82930952Y27117619D01*
X83169048Y27117619D01*
X83264286Y27070000D01*
X83311905Y27022381D01*
X83359524Y26927143D01*
X83359524Y26831905D01*
X83311905Y26689048D01*
X82740476Y26117619D01*
X83359524Y26117619D01*
X82581905Y62777619D02*
X82581905Y61968095D01*
X82629524Y61872857D01*
X82677143Y61825238D01*
X82772381Y61777619D01*
X82962858Y61777619D01*
X83058096Y61825238D01*
X83105715Y61872857D01*
X83153334Y61968095D01*
X83153334Y62777619D01*
X84153334Y61777619D02*
X83581905Y61777619D01*
X83867619Y61777619D02*
X83867619Y62777619D01*
X83772381Y62634762D01*
X83677143Y62539524D01*
X83581905Y62491905D01*
X84772381Y62777619D02*
X84867620Y62777619D01*
X84962858Y62730000D01*
X85010477Y62682381D01*
X85058096Y62587143D01*
X85105715Y62396667D01*
X85105715Y62158571D01*
X85058096Y61968095D01*
X85010477Y61872857D01*
X84962858Y61825238D01*
X84867620Y61777619D01*
X84772381Y61777619D01*
X84677143Y61825238D01*
X84629524Y61872857D01*
X84581905Y61968095D01*
X84534286Y62158571D01*
X84534286Y62396667D01*
X84581905Y62587143D01*
X84629524Y62682381D01*
X84677143Y62730000D01*
X84772381Y62777619D01*
X30988095Y62917619D02*
X30988095Y62108095D01*
X31035714Y62012857D01*
X31083333Y61965238D01*
X31178571Y61917619D01*
X31369048Y61917619D01*
X31464286Y61965238D01*
X31511905Y62012857D01*
X31559524Y62108095D01*
X31559524Y62917619D01*
X31940476Y62917619D02*
X32559524Y62917619D01*
X32226190Y62536667D01*
X32369048Y62536667D01*
X32464286Y62489048D01*
X32511905Y62441429D01*
X32559524Y62346190D01*
X32559524Y62108095D01*
X32511905Y62012857D01*
X32464286Y61965238D01*
X32369048Y61917619D01*
X32083333Y61917619D01*
X31988095Y61965238D01*
X31940476Y62012857D01*
X81327143Y11063334D02*
X81374762Y11015715D01*
X81422381Y10872858D01*
X81422381Y10777620D01*
X81374762Y10634762D01*
X81279524Y10539524D01*
X81184286Y10491905D01*
X80993810Y10444286D01*
X80850952Y10444286D01*
X80660476Y10491905D01*
X80565238Y10539524D01*
X80470000Y10634762D01*
X80422381Y10777620D01*
X80422381Y10872858D01*
X80470000Y11015715D01*
X80517619Y11063334D01*
X81422381Y12015715D02*
X81422381Y11444286D01*
X81422381Y11730000D02*
X80422381Y11730000D01*
X80565238Y11634762D01*
X80660476Y11539524D01*
X80708095Y11444286D01*
X74327143Y26223334D02*
X74374762Y26175715D01*
X74422381Y26032858D01*
X74422381Y25937620D01*
X74374762Y25794762D01*
X74279524Y25699524D01*
X74184286Y25651905D01*
X73993810Y25604286D01*
X73850952Y25604286D01*
X73660476Y25651905D01*
X73565238Y25699524D01*
X73470000Y25794762D01*
X73422381Y25937620D01*
X73422381Y26032858D01*
X73470000Y26175715D01*
X73517619Y26223334D01*
X73517619Y26604286D02*
X73470000Y26651905D01*
X73422381Y26747143D01*
X73422381Y26985239D01*
X73470000Y27080477D01*
X73517619Y27128096D01*
X73612857Y27175715D01*
X73708095Y27175715D01*
X73850952Y27128096D01*
X74422381Y26556667D01*
X74422381Y27175715D01*
X41917143Y16303334D02*
X41964762Y16255715D01*
X42012381Y16112858D01*
X42012381Y16017620D01*
X41964762Y15874762D01*
X41869524Y15779524D01*
X41774286Y15731905D01*
X41583810Y15684286D01*
X41440952Y15684286D01*
X41250476Y15731905D01*
X41155238Y15779524D01*
X41060000Y15874762D01*
X41012381Y16017620D01*
X41012381Y16112858D01*
X41060000Y16255715D01*
X41107619Y16303334D01*
X41012381Y16636667D02*
X41012381Y17255715D01*
X41393333Y16922381D01*
X41393333Y17065239D01*
X41440952Y17160477D01*
X41488571Y17208096D01*
X41583810Y17255715D01*
X41821905Y17255715D01*
X41917143Y17208096D01*
X41964762Y17160477D01*
X42012381Y17065239D01*
X42012381Y16779524D01*
X41964762Y16684286D01*
X41917143Y16636667D01*
X57817143Y27733334D02*
X57864762Y27685715D01*
X57912381Y27542858D01*
X57912381Y27447620D01*
X57864762Y27304762D01*
X57769524Y27209524D01*
X57674286Y27161905D01*
X57483810Y27114286D01*
X57340952Y27114286D01*
X57150476Y27161905D01*
X57055238Y27209524D01*
X56960000Y27304762D01*
X56912381Y27447620D01*
X56912381Y27542858D01*
X56960000Y27685715D01*
X57007619Y27733334D01*
X57245714Y28590477D02*
X57912381Y28590477D01*
X56864762Y28352381D02*
X57579048Y28114286D01*
X57579048Y28733334D01*
X87503334Y22572857D02*
X87455715Y22525238D01*
X87312858Y22477619D01*
X87217620Y22477619D01*
X87074762Y22525238D01*
X86979524Y22620476D01*
X86931905Y22715714D01*
X86884286Y22906190D01*
X86884286Y23049048D01*
X86931905Y23239524D01*
X86979524Y23334762D01*
X87074762Y23430000D01*
X87217620Y23477619D01*
X87312858Y23477619D01*
X87455715Y23430000D01*
X87503334Y23382381D01*
X87836667Y23477619D02*
X88503334Y23477619D01*
X88074762Y22477619D01*
X63015905Y64063619D02*
X63015905Y65063619D01*
X63254000Y65063619D01*
X63396858Y65016000D01*
X63492096Y64920762D01*
X63539715Y64825524D01*
X63587334Y64635048D01*
X63587334Y64492190D01*
X63539715Y64301714D01*
X63492096Y64206476D01*
X63396858Y64111238D01*
X63254000Y64063619D01*
X63015905Y64063619D01*
X64539715Y64063619D02*
X63968286Y64063619D01*
X64254000Y64063619D02*
X64254000Y65063619D01*
X64158762Y64920762D01*
X64063524Y64825524D01*
X63968286Y64777905D01*
X60063095Y66222619D02*
X60063095Y67222619D01*
X60634524Y66222619D02*
X60205952Y66794048D01*
X60634524Y67222619D02*
X60063095Y66651190D01*
X63015905Y74223619D02*
X63015905Y75223619D01*
X63254000Y75223619D01*
X63396858Y75176000D01*
X63492096Y75080762D01*
X63539715Y74985524D01*
X63587334Y74795048D01*
X63587334Y74652190D01*
X63539715Y74461714D01*
X63492096Y74366476D01*
X63396858Y74271238D01*
X63254000Y74223619D01*
X63015905Y74223619D01*
X63968286Y75128381D02*
X64015905Y75176000D01*
X64111143Y75223619D01*
X64349239Y75223619D01*
X64444477Y75176000D01*
X64492096Y75128381D01*
X64539715Y75033143D01*
X64539715Y74937905D01*
X64492096Y74795048D01*
X63920667Y74223619D01*
X64539715Y74223619D01*
X60063095Y76382619D02*
X60063095Y77382619D01*
X60634524Y76382619D02*
X60205952Y76954048D01*
X60634524Y77382619D02*
X60063095Y76811190D01*
X61552381Y30773810D02*
X60552381Y30773810D01*
X61457143Y31821429D02*
X61504762Y31773810D01*
X61552381Y31630953D01*
X61552381Y31535715D01*
X61504762Y31392857D01*
X61409524Y31297619D01*
X61314286Y31250000D01*
X61123810Y31202381D01*
X60980952Y31202381D01*
X60790476Y31250000D01*
X60695238Y31297619D01*
X60600000Y31392857D01*
X60552381Y31535715D01*
X60552381Y31630953D01*
X60600000Y31773810D01*
X60647619Y31821429D01*
X61552381Y32773810D02*
X61552381Y32202381D01*
X61552381Y32488095D02*
X60552381Y32488095D01*
X60695238Y32392857D01*
X60790476Y32297619D01*
X60838095Y32202381D01*
X74514414Y12317499D02*
X74181080Y12793690D01*
X73942985Y12317499D02*
X73942985Y13317499D01*
X74323938Y13317499D01*
X74419176Y13269880D01*
X74466795Y13222261D01*
X74514414Y13127023D01*
X74514414Y12984166D01*
X74466795Y12888928D01*
X74419176Y12841309D01*
X74323938Y12793690D01*
X73942985Y12793690D01*
X75466795Y12317499D02*
X74895366Y12317499D01*
X75181080Y12317499D02*
X75181080Y13317499D01*
X75085842Y13174642D01*
X74990604Y13079404D01*
X74895366Y13031785D01*
X74514414Y17397499D02*
X74181080Y17873690D01*
X73942985Y17397499D02*
X73942985Y18397499D01*
X74323938Y18397499D01*
X74419176Y18349880D01*
X74466795Y18302261D01*
X74514414Y18207023D01*
X74514414Y18064166D01*
X74466795Y17968928D01*
X74419176Y17921309D01*
X74323938Y17873690D01*
X73942985Y17873690D01*
X74895366Y18302261D02*
X74942985Y18349880D01*
X75038223Y18397499D01*
X75276319Y18397499D01*
X75371557Y18349880D01*
X75419176Y18302261D01*
X75466795Y18207023D01*
X75466795Y18111785D01*
X75419176Y17968928D01*
X74847747Y17397499D01*
X75466795Y17397499D01*
X41992254Y88137739D02*
X41658920Y88613930D01*
X41420825Y88137739D02*
X41420825Y89137739D01*
X41801778Y89137739D01*
X41897016Y89090120D01*
X41944635Y89042501D01*
X41992254Y88947263D01*
X41992254Y88804406D01*
X41944635Y88709168D01*
X41897016Y88661549D01*
X41801778Y88613930D01*
X41420825Y88613930D01*
X42325587Y89137739D02*
X42944635Y89137739D01*
X42611301Y88756787D01*
X42754159Y88756787D01*
X42849397Y88709168D01*
X42897016Y88661549D01*
X42944635Y88566310D01*
X42944635Y88328215D01*
X42897016Y88232977D01*
X42849397Y88185358D01*
X42754159Y88137739D01*
X42468444Y88137739D01*
X42373206Y88185358D01*
X42325587Y88232977D01*
X54194414Y81137499D02*
X53861080Y81613690D01*
X53622985Y81137499D02*
X53622985Y82137499D01*
X54003938Y82137499D01*
X54099176Y82089880D01*
X54146795Y82042261D01*
X54194414Y81947023D01*
X54194414Y81804166D01*
X54146795Y81708928D01*
X54099176Y81661309D01*
X54003938Y81613690D01*
X53622985Y81613690D01*
X55051557Y81804166D02*
X55051557Y81137499D01*
X54813461Y82185118D02*
X54575366Y81470832D01*
X55194414Y81470832D01*
X72472254Y88137739D02*
X72138920Y88613930D01*
X71900825Y88137739D02*
X71900825Y89137739D01*
X72281778Y89137739D01*
X72377016Y89090120D01*
X72424635Y89042501D01*
X72472254Y88947263D01*
X72472254Y88804406D01*
X72424635Y88709168D01*
X72377016Y88661549D01*
X72281778Y88613930D01*
X71900825Y88613930D01*
X73377016Y89137739D02*
X72900825Y89137739D01*
X72853206Y88661549D01*
X72900825Y88709168D01*
X72996063Y88756787D01*
X73234159Y88756787D01*
X73329397Y88709168D01*
X73377016Y88661549D01*
X73424635Y88566310D01*
X73424635Y88328215D01*
X73377016Y88232977D01*
X73329397Y88185358D01*
X73234159Y88137739D01*
X72996063Y88137739D01*
X72900825Y88185358D01*
X72853206Y88232977D01*
X84674414Y81137499D02*
X84341080Y81613690D01*
X84102985Y81137499D02*
X84102985Y82137499D01*
X84483938Y82137499D01*
X84579176Y82089880D01*
X84626795Y82042261D01*
X84674414Y81947023D01*
X84674414Y81804166D01*
X84626795Y81708928D01*
X84579176Y81661309D01*
X84483938Y81613690D01*
X84102985Y81613690D01*
X85531557Y82137499D02*
X85341080Y82137499D01*
X85245842Y82089880D01*
X85198223Y82042261D01*
X85102985Y81899404D01*
X85055366Y81708928D01*
X85055366Y81327975D01*
X85102985Y81232737D01*
X85150604Y81185118D01*
X85245842Y81137499D01*
X85436319Y81137499D01*
X85531557Y81185118D01*
X85579176Y81232737D01*
X85626795Y81327975D01*
X85626795Y81566070D01*
X85579176Y81661309D01*
X85531557Y81708928D01*
X85436319Y81756547D01*
X85245842Y81756547D01*
X85150604Y81708928D01*
X85102985Y81661309D01*
X85055366Y81566070D01*
X66182501Y54194414D02*
X65706310Y53861080D01*
X66182501Y53622985D02*
X65182501Y53622985D01*
X65182501Y54003938D01*
X65230120Y54099176D01*
X65277739Y54146795D01*
X65372977Y54194414D01*
X65515834Y54194414D01*
X65611072Y54146795D01*
X65658691Y54099176D01*
X65706310Y54003938D01*
X65706310Y53622985D01*
X65182501Y54527747D02*
X65182501Y55194414D01*
X66182501Y54765842D01*
X68722501Y54194414D02*
X68246310Y53861080D01*
X68722501Y53622985D02*
X67722501Y53622985D01*
X67722501Y54003938D01*
X67770120Y54099176D01*
X67817739Y54146795D01*
X67912977Y54194414D01*
X68055834Y54194414D01*
X68151072Y54146795D01*
X68198691Y54099176D01*
X68246310Y54003938D01*
X68246310Y53622985D01*
X68151072Y54765842D02*
X68103453Y54670604D01*
X68055834Y54622985D01*
X67960596Y54575366D01*
X67912977Y54575366D01*
X67817739Y54622985D01*
X67770120Y54670604D01*
X67722501Y54765842D01*
X67722501Y54956319D01*
X67770120Y55051557D01*
X67817739Y55099176D01*
X67912977Y55146795D01*
X67960596Y55146795D01*
X68055834Y55099176D01*
X68103453Y55051557D01*
X68151072Y54956319D01*
X68151072Y54765842D01*
X68198691Y54670604D01*
X68246310Y54622985D01*
X68341549Y54575366D01*
X68532025Y54575366D01*
X68627263Y54622985D01*
X68674882Y54670604D01*
X68722501Y54765842D01*
X68722501Y54956319D01*
X68674882Y55051557D01*
X68627263Y55099176D01*
X68532025Y55146795D01*
X68341549Y55146795D01*
X68246310Y55099176D01*
X68198691Y55051557D01*
X68151072Y54956319D01*
X98644414Y7477499D02*
X98311080Y7953690D01*
X98072985Y7477499D02*
X98072985Y8477499D01*
X98453938Y8477499D01*
X98549176Y8429880D01*
X98596795Y8382261D01*
X98644414Y8287023D01*
X98644414Y8144166D01*
X98596795Y8048928D01*
X98549176Y8001309D01*
X98453938Y7953690D01*
X98072985Y7953690D01*
X99120604Y7477499D02*
X99311080Y7477499D01*
X99406319Y7525118D01*
X99453938Y7572737D01*
X99549176Y7715594D01*
X99596795Y7906070D01*
X99596795Y8287023D01*
X99549176Y8382261D01*
X99501557Y8429880D01*
X99406319Y8477499D01*
X99215842Y8477499D01*
X99120604Y8429880D01*
X99072985Y8382261D01*
X99025366Y8287023D01*
X99025366Y8048928D01*
X99072985Y7953690D01*
X99120604Y7906070D01*
X99215842Y7858451D01*
X99406319Y7858451D01*
X99501557Y7906070D01*
X99549176Y7953690D01*
X99596795Y8048928D01*
X114678223Y7477499D02*
X114344889Y7953690D01*
X114106794Y7477499D02*
X114106794Y8477499D01*
X114487747Y8477499D01*
X114582985Y8429880D01*
X114630604Y8382261D01*
X114678223Y8287023D01*
X114678223Y8144166D01*
X114630604Y8048928D01*
X114582985Y8001309D01*
X114487747Y7953690D01*
X114106794Y7953690D01*
X115630604Y7477499D02*
X115059175Y7477499D01*
X115344889Y7477499D02*
X115344889Y8477499D01*
X115249651Y8334642D01*
X115154413Y8239404D01*
X115059175Y8191785D01*
X116249651Y8477499D02*
X116344890Y8477499D01*
X116440128Y8429880D01*
X116487747Y8382261D01*
X116535366Y8287023D01*
X116582985Y8096547D01*
X116582985Y7858451D01*
X116535366Y7667975D01*
X116487747Y7572737D01*
X116440128Y7525118D01*
X116344890Y7477499D01*
X116249651Y7477499D01*
X116154413Y7525118D01*
X116106794Y7572737D01*
X116059175Y7667975D01*
X116011556Y7858451D01*
X116011556Y8096547D01*
X116059175Y8287023D01*
X116106794Y8382261D01*
X116154413Y8429880D01*
X116249651Y8477499D01*
X95186667Y26405238D02*
X95329524Y26357619D01*
X95567620Y26357619D01*
X95662858Y26405238D01*
X95710477Y26452857D01*
X95758096Y26548095D01*
X95758096Y26643333D01*
X95710477Y26738571D01*
X95662858Y26786190D01*
X95567620Y26833810D01*
X95377143Y26881429D01*
X95281905Y26929048D01*
X95234286Y26976667D01*
X95186667Y27071905D01*
X95186667Y27167143D01*
X95234286Y27262381D01*
X95281905Y27310000D01*
X95377143Y27357619D01*
X95615239Y27357619D01*
X95758096Y27310000D01*
X96091429Y27357619D02*
X96329524Y26357619D01*
X96520001Y27071905D01*
X96710477Y26357619D01*
X96948572Y27357619D01*
X97853334Y26357619D02*
X97281905Y26357619D01*
X97567619Y26357619D02*
X97567619Y27357619D01*
X97472381Y27214762D01*
X97377143Y27119524D01*
X97281905Y27071905D01*
X111696667Y26405238D02*
X111839524Y26357619D01*
X112077620Y26357619D01*
X112172858Y26405238D01*
X112220477Y26452857D01*
X112268096Y26548095D01*
X112268096Y26643333D01*
X112220477Y26738571D01*
X112172858Y26786190D01*
X112077620Y26833810D01*
X111887143Y26881429D01*
X111791905Y26929048D01*
X111744286Y26976667D01*
X111696667Y27071905D01*
X111696667Y27167143D01*
X111744286Y27262381D01*
X111791905Y27310000D01*
X111887143Y27357619D01*
X112125239Y27357619D01*
X112268096Y27310000D01*
X112601429Y27357619D02*
X112839524Y26357619D01*
X113030001Y27071905D01*
X113220477Y26357619D01*
X113458572Y27357619D01*
X113791905Y27262381D02*
X113839524Y27310000D01*
X113934762Y27357619D01*
X114172858Y27357619D01*
X114268096Y27310000D01*
X114315715Y27262381D01*
X114363334Y27167143D01*
X114363334Y27071905D01*
X114315715Y26929048D01*
X113744286Y26357619D01*
X114363334Y26357619D01*
X37372381Y10668095D02*
X38181905Y10668095D01*
X38277143Y10715714D01*
X38324762Y10763333D01*
X38372381Y10858571D01*
X38372381Y11049048D01*
X38324762Y11144286D01*
X38277143Y11191905D01*
X38181905Y11239524D01*
X37372381Y11239524D01*
X38372381Y12239524D02*
X38372381Y11668095D01*
X38372381Y11953809D02*
X37372381Y11953809D01*
X37515238Y11858571D01*
X37610476Y11763333D01*
X37658095Y11668095D01*
X48768095Y62917619D02*
X48768095Y62108095D01*
X48815714Y62012857D01*
X48863333Y61965238D01*
X48958571Y61917619D01*
X49149048Y61917619D01*
X49244286Y61965238D01*
X49291905Y62012857D01*
X49339524Y62108095D01*
X49339524Y62917619D01*
X50244286Y62584286D02*
X50244286Y61917619D01*
X50006190Y62965238D02*
X49768095Y62250952D01*
X50387143Y62250952D01*
X69088095Y62917619D02*
X69088095Y62108095D01*
X69135714Y62012857D01*
X69183333Y61965238D01*
X69278571Y61917619D01*
X69469048Y61917619D01*
X69564286Y61965238D01*
X69611905Y62012857D01*
X69659524Y62108095D01*
X69659524Y62917619D01*
X70611905Y62917619D02*
X70135714Y62917619D01*
X70088095Y62441429D01*
X70135714Y62489048D01*
X70230952Y62536667D01*
X70469048Y62536667D01*
X70564286Y62489048D01*
X70611905Y62441429D01*
X70659524Y62346190D01*
X70659524Y62108095D01*
X70611905Y62012857D01*
X70564286Y61965238D01*
X70469048Y61917619D01*
X70230952Y61917619D01*
X70135714Y61965238D01*
X70088095Y62012857D01*
X86868095Y62917619D02*
X86868095Y62108095D01*
X86915714Y62012857D01*
X86963333Y61965238D01*
X87058571Y61917619D01*
X87249048Y61917619D01*
X87344286Y61965238D01*
X87391905Y62012857D01*
X87439524Y62108095D01*
X87439524Y62917619D01*
X88344286Y62917619D02*
X88153809Y62917619D01*
X88058571Y62870000D01*
X88010952Y62822381D01*
X87915714Y62679524D01*
X87868095Y62489048D01*
X87868095Y62108095D01*
X87915714Y62012857D01*
X87963333Y61965238D01*
X88058571Y61917619D01*
X88249048Y61917619D01*
X88344286Y61965238D01*
X88391905Y62012857D01*
X88439524Y62108095D01*
X88439524Y62346190D01*
X88391905Y62441429D01*
X88344286Y62489048D01*
X88249048Y62536667D01*
X88058571Y62536667D01*
X87963333Y62489048D01*
X87915714Y62441429D01*
X87868095Y62346190D01*
X42418095Y62777619D02*
X42418095Y61968095D01*
X42465714Y61872857D01*
X42513333Y61825238D01*
X42608571Y61777619D01*
X42799048Y61777619D01*
X42894286Y61825238D01*
X42941905Y61872857D01*
X42989524Y61968095D01*
X42989524Y62777619D01*
X43370476Y62777619D02*
X44037143Y62777619D01*
X43608571Y61777619D01*
X72898095Y62777619D02*
X72898095Y61968095D01*
X72945714Y61872857D01*
X72993333Y61825238D01*
X73088571Y61777619D01*
X73279048Y61777619D01*
X73374286Y61825238D01*
X73421905Y61872857D01*
X73469524Y61968095D01*
X73469524Y62777619D01*
X73993333Y61777619D02*
X74183809Y61777619D01*
X74279048Y61825238D01*
X74326667Y61872857D01*
X74421905Y62015714D01*
X74469524Y62206190D01*
X74469524Y62587143D01*
X74421905Y62682381D01*
X74374286Y62730000D01*
X74279048Y62777619D01*
X74088571Y62777619D01*
X73993333Y62730000D01*
X73945714Y62682381D01*
X73898095Y62587143D01*
X73898095Y62349048D01*
X73945714Y62253810D01*
X73993333Y62206190D01*
X74088571Y62158571D01*
X74279048Y62158571D01*
X74374286Y62206190D01*
X74421905Y62253810D01*
X74469524Y62349048D01*
X62372501Y11808223D02*
X61896310Y11474889D01*
X62372501Y11236794D02*
X61372501Y11236794D01*
X61372501Y11617747D01*
X61420120Y11712985D01*
X61467739Y11760604D01*
X61562977Y11808223D01*
X61705834Y11808223D01*
X61801072Y11760604D01*
X61848691Y11712985D01*
X61896310Y11617747D01*
X61896310Y11236794D01*
X62372501Y12760604D02*
X62372501Y12189175D01*
X62372501Y12474889D02*
X61372501Y12474889D01*
X61515358Y12379651D01*
X61610596Y12284413D01*
X61658215Y12189175D01*
X62372501Y13712985D02*
X62372501Y13141556D01*
X62372501Y13427270D02*
X61372501Y13427270D01*
X61515358Y13332032D01*
X61610596Y13236794D01*
X61658215Y13141556D01*
X59832501Y11808223D02*
X59356310Y11474889D01*
X59832501Y11236794D02*
X58832501Y11236794D01*
X58832501Y11617747D01*
X58880120Y11712985D01*
X58927739Y11760604D01*
X59022977Y11808223D01*
X59165834Y11808223D01*
X59261072Y11760604D01*
X59308691Y11712985D01*
X59356310Y11617747D01*
X59356310Y11236794D01*
X59832501Y12760604D02*
X59832501Y12189175D01*
X59832501Y12474889D02*
X58832501Y12474889D01*
X58975358Y12379651D01*
X59070596Y12284413D01*
X59118215Y12189175D01*
X58927739Y13141556D02*
X58880120Y13189175D01*
X58832501Y13284413D01*
X58832501Y13522509D01*
X58880120Y13617747D01*
X58927739Y13665366D01*
X59022977Y13712985D01*
X59118215Y13712985D01*
X59261072Y13665366D01*
X59832501Y13093937D01*
X59832501Y13712985D01*
X50796190Y8413809D02*
X51272381Y8413809D01*
X50272381Y8080476D02*
X50796190Y8413809D01*
X50272381Y8747143D01*
X51272381Y9604286D02*
X51272381Y9032857D01*
X51272381Y9318571D02*
X50272381Y9318571D01*
X50415238Y9223333D01*
X50510476Y9128095D01*
X50558095Y9032857D01*
X120586667Y86415619D02*
X120253333Y86891810D01*
X120015238Y86415619D02*
X120015238Y87415619D01*
X120396191Y87415619D01*
X120491429Y87368000D01*
X120539048Y87320381D01*
X120586667Y87225143D01*
X120586667Y87082286D01*
X120539048Y86987048D01*
X120491429Y86939429D01*
X120396191Y86891810D01*
X120015238Y86891810D01*
X121015238Y86939429D02*
X121348572Y86939429D01*
X121491429Y86415619D02*
X121015238Y86415619D01*
X121015238Y87415619D01*
X121491429Y87415619D01*
X122253334Y86939429D02*
X121920000Y86939429D01*
X121920000Y86415619D02*
X121920000Y87415619D01*
X122396191Y87415619D01*
X122920000Y87415619D02*
X122920000Y87177524D01*
X122681905Y87272762D02*
X122920000Y87177524D01*
X123158096Y87272762D01*
X122777143Y86987048D02*
X122920000Y87177524D01*
X123062858Y86987048D01*
X123681905Y87415619D02*
X123681905Y87177524D01*
X123443810Y87272762D02*
X123681905Y87177524D01*
X123920001Y87272762D01*
X123539048Y86987048D02*
X123681905Y87177524D01*
X123824763Y86987048D01*
X120586667Y7675619D02*
X120253333Y8151810D01*
X120015238Y7675619D02*
X120015238Y8675619D01*
X120396191Y8675619D01*
X120491429Y8628000D01*
X120539048Y8580381D01*
X120586667Y8485143D01*
X120586667Y8342286D01*
X120539048Y8247048D01*
X120491429Y8199429D01*
X120396191Y8151810D01*
X120015238Y8151810D01*
X121015238Y8199429D02*
X121348572Y8199429D01*
X121491429Y7675619D02*
X121015238Y7675619D01*
X121015238Y8675619D01*
X121491429Y8675619D01*
X122253334Y8199429D02*
X121920000Y8199429D01*
X121920000Y7675619D02*
X121920000Y8675619D01*
X122396191Y8675619D01*
X122920000Y8675619D02*
X122920000Y8437524D01*
X122681905Y8532762D02*
X122920000Y8437524D01*
X123158096Y8532762D01*
X122777143Y8247048D02*
X122920000Y8437524D01*
X123062858Y8247048D01*
X123681905Y8675619D02*
X123681905Y8437524D01*
X123443810Y8532762D02*
X123681905Y8437524D01*
X123920001Y8532762D01*
X123539048Y8247048D02*
X123681905Y8437524D01*
X123824763Y8247048D01*
X3746667Y7675619D02*
X3413333Y8151810D01*
X3175238Y7675619D02*
X3175238Y8675619D01*
X3556191Y8675619D01*
X3651429Y8628000D01*
X3699048Y8580381D01*
X3746667Y8485143D01*
X3746667Y8342286D01*
X3699048Y8247048D01*
X3651429Y8199429D01*
X3556191Y8151810D01*
X3175238Y8151810D01*
X4175238Y8199429D02*
X4508572Y8199429D01*
X4651429Y7675619D02*
X4175238Y7675619D01*
X4175238Y8675619D01*
X4651429Y8675619D01*
X5413334Y8199429D02*
X5080000Y8199429D01*
X5080000Y7675619D02*
X5080000Y8675619D01*
X5556191Y8675619D01*
X6080000Y8675619D02*
X6080000Y8437524D01*
X5841905Y8532762D02*
X6080000Y8437524D01*
X6318096Y8532762D01*
X5937143Y8247048D02*
X6080000Y8437524D01*
X6222858Y8247048D01*
X6841905Y8675619D02*
X6841905Y8437524D01*
X6603810Y8532762D02*
X6841905Y8437524D01*
X7080001Y8532762D01*
X6699048Y8247048D02*
X6841905Y8437524D01*
X6984763Y8247048D01*
X3746667Y86415619D02*
X3413333Y86891810D01*
X3175238Y86415619D02*
X3175238Y87415619D01*
X3556191Y87415619D01*
X3651429Y87368000D01*
X3699048Y87320381D01*
X3746667Y87225143D01*
X3746667Y87082286D01*
X3699048Y86987048D01*
X3651429Y86939429D01*
X3556191Y86891810D01*
X3175238Y86891810D01*
X4175238Y86939429D02*
X4508572Y86939429D01*
X4651429Y86415619D02*
X4175238Y86415619D01*
X4175238Y87415619D01*
X4651429Y87415619D01*
X5413334Y86939429D02*
X5080000Y86939429D01*
X5080000Y86415619D02*
X5080000Y87415619D01*
X5556191Y87415619D01*
X6080000Y87415619D02*
X6080000Y87177524D01*
X5841905Y87272762D02*
X6080000Y87177524D01*
X6318096Y87272762D01*
X5937143Y86987048D02*
X6080000Y87177524D01*
X6222858Y86987048D01*
X6841905Y87415619D02*
X6841905Y87177524D01*
X6603810Y87272762D02*
X6841905Y87177524D01*
X7080001Y87272762D01*
X6699048Y86987048D02*
X6841905Y87177524D01*
X6984763Y86987048D01*
X3746667Y53395619D02*
X3413333Y53871810D01*
X3175238Y53395619D02*
X3175238Y54395619D01*
X3556191Y54395619D01*
X3651429Y54348000D01*
X3699048Y54300381D01*
X3746667Y54205143D01*
X3746667Y54062286D01*
X3699048Y53967048D01*
X3651429Y53919429D01*
X3556191Y53871810D01*
X3175238Y53871810D01*
X4175238Y53919429D02*
X4508572Y53919429D01*
X4651429Y53395619D02*
X4175238Y53395619D01*
X4175238Y54395619D01*
X4651429Y54395619D01*
X5413334Y53919429D02*
X5080000Y53919429D01*
X5080000Y53395619D02*
X5080000Y54395619D01*
X5556191Y54395619D01*
X6080000Y54395619D02*
X6080000Y54157524D01*
X5841905Y54252762D02*
X6080000Y54157524D01*
X6318096Y54252762D01*
X5937143Y53967048D02*
X6080000Y54157524D01*
X6222858Y53967048D01*
X6841905Y54395619D02*
X6841905Y54157524D01*
X6603810Y54252762D02*
X6841905Y54157524D01*
X7080001Y54252762D01*
X6699048Y53967048D02*
X6841905Y54157524D01*
X6984763Y53967048D01*
X120586667Y53395619D02*
X120253333Y53871810D01*
X120015238Y53395619D02*
X120015238Y54395619D01*
X120396191Y54395619D01*
X120491429Y54348000D01*
X120539048Y54300381D01*
X120586667Y54205143D01*
X120586667Y54062286D01*
X120539048Y53967048D01*
X120491429Y53919429D01*
X120396191Y53871810D01*
X120015238Y53871810D01*
X121015238Y53919429D02*
X121348572Y53919429D01*
X121491429Y53395619D02*
X121015238Y53395619D01*
X121015238Y54395619D01*
X121491429Y54395619D01*
X122253334Y53919429D02*
X121920000Y53919429D01*
X121920000Y53395619D02*
X121920000Y54395619D01*
X122396191Y54395619D01*
X122920000Y54395619D02*
X122920000Y54157524D01*
X122681905Y54252762D02*
X122920000Y54157524D01*
X123158096Y54252762D01*
X122777143Y53967048D02*
X122920000Y54157524D01*
X123062858Y53967048D01*
X123681905Y54395619D02*
X123681905Y54157524D01*
X123443810Y54252762D02*
X123681905Y54157524D01*
X123920001Y54252762D01*
X123539048Y53967048D02*
X123681905Y54157524D01*
X123824763Y53967048D01*
M02*
