G04 #@! TF.FileFunction,Other,Fab,Top*
%FSLAX46Y46*%
G04 Gerber Fmt 4.6, Leading zero omitted, Abs format (unit mm)*
G04 Created by KiCad (PCBNEW (2015-12-07 BZR 6352)-product) date Fri 22 Apr 2016 06:39:40 PM EDT*
%MOMM*%
G01*
G04 APERTURE LIST*
%ADD10C,0.100000*%
%ADD11C,0.150000*%
G04 APERTURE END LIST*
D10*
D11*
X49506666Y85637619D02*
X50173333Y85637619D01*
X49744761Y84637619D01*
X50316190Y84542381D02*
X51078095Y84542381D01*
X51268571Y84685238D02*
X51363809Y84637619D01*
X51554285Y84637619D01*
X51649524Y84685238D01*
X51697143Y84780476D01*
X51697143Y84828095D01*
X51649524Y84923333D01*
X51554285Y84970952D01*
X51411428Y84970952D01*
X51316190Y85018571D01*
X51268571Y85113810D01*
X51268571Y85161429D01*
X51316190Y85256667D01*
X51411428Y85304286D01*
X51554285Y85304286D01*
X51649524Y85256667D01*
X52506667Y84685238D02*
X52411429Y84637619D01*
X52220952Y84637619D01*
X52125714Y84685238D01*
X52078095Y84780476D01*
X52078095Y85161429D01*
X52125714Y85256667D01*
X52220952Y85304286D01*
X52411429Y85304286D01*
X52506667Y85256667D01*
X52554286Y85161429D01*
X52554286Y85066190D01*
X52078095Y84970952D01*
X53411429Y85304286D02*
X53411429Y84494762D01*
X53363810Y84399524D01*
X53316191Y84351905D01*
X53220952Y84304286D01*
X53078095Y84304286D01*
X52982857Y84351905D01*
X53411429Y84685238D02*
X53316191Y84637619D01*
X53125714Y84637619D01*
X53030476Y84685238D01*
X52982857Y84732857D01*
X52935238Y84828095D01*
X52935238Y85113810D01*
X52982857Y85209048D01*
X53030476Y85256667D01*
X53125714Y85304286D01*
X53316191Y85304286D01*
X53411429Y85256667D01*
X53887619Y84637619D02*
X53887619Y85304286D01*
X53887619Y85209048D02*
X53935238Y85256667D01*
X54030476Y85304286D01*
X54173334Y85304286D01*
X54268572Y85256667D01*
X54316191Y85161429D01*
X54316191Y84637619D01*
X54316191Y85161429D02*
X54363810Y85256667D01*
X54459048Y85304286D01*
X54601905Y85304286D01*
X54697143Y85256667D01*
X54744762Y85161429D01*
X54744762Y84637619D01*
X55601905Y84685238D02*
X55506667Y84637619D01*
X55316190Y84637619D01*
X55220952Y84685238D01*
X55173333Y84780476D01*
X55173333Y85161429D01*
X55220952Y85256667D01*
X55316190Y85304286D01*
X55506667Y85304286D01*
X55601905Y85256667D01*
X55649524Y85161429D01*
X55649524Y85066190D01*
X55173333Y84970952D01*
X56078095Y85304286D02*
X56078095Y84637619D01*
X56078095Y85209048D02*
X56125714Y85256667D01*
X56220952Y85304286D01*
X56363810Y85304286D01*
X56459048Y85256667D01*
X56506667Y85161429D01*
X56506667Y84637619D01*
X56840000Y85304286D02*
X57220952Y85304286D01*
X56982857Y85637619D02*
X56982857Y84780476D01*
X57030476Y84685238D01*
X57125714Y84637619D01*
X57220952Y84637619D01*
X5359091Y20794578D02*
X5406710Y20937435D01*
X5454330Y20985054D01*
X5549568Y21032673D01*
X5692425Y21032673D01*
X5787663Y20985054D01*
X5835282Y20937435D01*
X5882901Y20842197D01*
X5882901Y20461244D01*
X4882901Y20461244D01*
X4882901Y20794578D01*
X4930520Y20889816D01*
X4978139Y20937435D01*
X5073377Y20985054D01*
X5168615Y20985054D01*
X5263853Y20937435D01*
X5311472Y20889816D01*
X5359091Y20794578D01*
X5359091Y20461244D01*
X5597187Y21413625D02*
X5597187Y21889816D01*
X5882901Y21318387D02*
X4882901Y21651720D01*
X5882901Y21985054D01*
X5882901Y22889816D02*
X5406710Y22556482D01*
X5882901Y22318387D02*
X4882901Y22318387D01*
X4882901Y22699340D01*
X4930520Y22794578D01*
X4978139Y22842197D01*
X5073377Y22889816D01*
X5216234Y22889816D01*
X5311472Y22842197D01*
X5359091Y22794578D01*
X5406710Y22699340D01*
X5406710Y22318387D01*
X5882901Y23889816D02*
X5406710Y23556482D01*
X5882901Y23318387D02*
X4882901Y23318387D01*
X4882901Y23699340D01*
X4930520Y23794578D01*
X4978139Y23842197D01*
X5073377Y23889816D01*
X5216234Y23889816D01*
X5311472Y23842197D01*
X5359091Y23794578D01*
X5406710Y23699340D01*
X5406710Y23318387D01*
X5359091Y24318387D02*
X5359091Y24651721D01*
X5882901Y24794578D02*
X5882901Y24318387D01*
X4882901Y24318387D01*
X4882901Y24794578D01*
X5882901Y25699340D02*
X5882901Y25223149D01*
X4882901Y25223149D01*
X5978139Y25794578D02*
X5978139Y26556483D01*
X4882901Y27080293D02*
X5597187Y27080293D01*
X5740044Y27032673D01*
X5835282Y26937435D01*
X5882901Y26794578D01*
X5882901Y26699340D01*
X5597187Y27508864D02*
X5597187Y27985055D01*
X5882901Y27413626D02*
X4882901Y27746959D01*
X5882901Y28080293D01*
X5787663Y28985055D02*
X5835282Y28937436D01*
X5882901Y28794579D01*
X5882901Y28699341D01*
X5835282Y28556483D01*
X5740044Y28461245D01*
X5644806Y28413626D01*
X5454330Y28366007D01*
X5311472Y28366007D01*
X5120996Y28413626D01*
X5025758Y28461245D01*
X4930520Y28556483D01*
X4882901Y28699341D01*
X4882901Y28794579D01*
X4930520Y28937436D01*
X4978139Y28985055D01*
X5882901Y29413626D02*
X4882901Y29413626D01*
X5882901Y29985055D02*
X5311472Y29556483D01*
X4882901Y29985055D02*
X5454330Y29413626D01*
X79764286Y25617619D02*
X80430953Y25617619D01*
X80002381Y24617619D01*
X81240477Y25284286D02*
X81240477Y24617619D01*
X81002381Y25665238D02*
X80764286Y24950952D01*
X81383334Y24950952D01*
X81764286Y24617619D02*
X81764286Y25617619D01*
X81764286Y25141429D02*
X82335715Y25141429D01*
X82335715Y24617619D02*
X82335715Y25617619D01*
X83383334Y24712857D02*
X83335715Y24665238D01*
X83192858Y24617619D01*
X83097620Y24617619D01*
X82954762Y24665238D01*
X82859524Y24760476D01*
X82811905Y24855714D01*
X82764286Y25046190D01*
X82764286Y25189048D01*
X82811905Y25379524D01*
X82859524Y25474762D01*
X82954762Y25570000D01*
X83097620Y25617619D01*
X83192858Y25617619D01*
X83335715Y25570000D01*
X83383334Y25522381D01*
X84335715Y24617619D02*
X83764286Y24617619D01*
X84050000Y24617619D02*
X84050000Y25617619D01*
X83954762Y25474762D01*
X83859524Y25379524D01*
X83764286Y25331905D01*
X85192858Y25284286D02*
X85192858Y24617619D01*
X84954762Y25665238D02*
X84716667Y24950952D01*
X85335715Y24950952D01*
X79986666Y85637619D02*
X80653333Y85637619D01*
X80224761Y84637619D01*
X80796190Y84542381D02*
X81558095Y84542381D01*
X81748571Y84685238D02*
X81843809Y84637619D01*
X82034285Y84637619D01*
X82129524Y84685238D01*
X82177143Y84780476D01*
X82177143Y84828095D01*
X82129524Y84923333D01*
X82034285Y84970952D01*
X81891428Y84970952D01*
X81796190Y85018571D01*
X81748571Y85113810D01*
X81748571Y85161429D01*
X81796190Y85256667D01*
X81891428Y85304286D01*
X82034285Y85304286D01*
X82129524Y85256667D01*
X82986667Y84685238D02*
X82891429Y84637619D01*
X82700952Y84637619D01*
X82605714Y84685238D01*
X82558095Y84780476D01*
X82558095Y85161429D01*
X82605714Y85256667D01*
X82700952Y85304286D01*
X82891429Y85304286D01*
X82986667Y85256667D01*
X83034286Y85161429D01*
X83034286Y85066190D01*
X82558095Y84970952D01*
X83891429Y85304286D02*
X83891429Y84494762D01*
X83843810Y84399524D01*
X83796191Y84351905D01*
X83700952Y84304286D01*
X83558095Y84304286D01*
X83462857Y84351905D01*
X83891429Y84685238D02*
X83796191Y84637619D01*
X83605714Y84637619D01*
X83510476Y84685238D01*
X83462857Y84732857D01*
X83415238Y84828095D01*
X83415238Y85113810D01*
X83462857Y85209048D01*
X83510476Y85256667D01*
X83605714Y85304286D01*
X83796191Y85304286D01*
X83891429Y85256667D01*
X84367619Y84637619D02*
X84367619Y85304286D01*
X84367619Y85209048D02*
X84415238Y85256667D01*
X84510476Y85304286D01*
X84653334Y85304286D01*
X84748572Y85256667D01*
X84796191Y85161429D01*
X84796191Y84637619D01*
X84796191Y85161429D02*
X84843810Y85256667D01*
X84939048Y85304286D01*
X85081905Y85304286D01*
X85177143Y85256667D01*
X85224762Y85161429D01*
X85224762Y84637619D01*
X86081905Y84685238D02*
X85986667Y84637619D01*
X85796190Y84637619D01*
X85700952Y84685238D01*
X85653333Y84780476D01*
X85653333Y85161429D01*
X85700952Y85256667D01*
X85796190Y85304286D01*
X85986667Y85304286D01*
X86081905Y85256667D01*
X86129524Y85161429D01*
X86129524Y85066190D01*
X85653333Y84970952D01*
X86558095Y85304286D02*
X86558095Y84637619D01*
X86558095Y85209048D02*
X86605714Y85256667D01*
X86700952Y85304286D01*
X86843810Y85304286D01*
X86939048Y85256667D01*
X86986667Y85161429D01*
X86986667Y84637619D01*
X87320000Y85304286D02*
X87700952Y85304286D01*
X87462857Y85637619D02*
X87462857Y84780476D01*
X87510476Y84685238D01*
X87605714Y84637619D01*
X87700952Y84637619D01*
X28488095Y61417619D02*
X29154762Y61417619D01*
X28726190Y60417619D01*
X29964286Y61084286D02*
X29964286Y60417619D01*
X29726190Y61465238D02*
X29488095Y60750952D01*
X30107143Y60750952D01*
X30488095Y60417619D02*
X30488095Y61417619D01*
X30488095Y60941429D02*
X31059524Y60941429D01*
X31059524Y60417619D02*
X31059524Y61417619D01*
X32107143Y60512857D02*
X32059524Y60465238D01*
X31916667Y60417619D01*
X31821429Y60417619D01*
X31678571Y60465238D01*
X31583333Y60560476D01*
X31535714Y60655714D01*
X31488095Y60846190D01*
X31488095Y60989048D01*
X31535714Y61179524D01*
X31583333Y61274762D01*
X31678571Y61370000D01*
X31821429Y61417619D01*
X31916667Y61417619D01*
X32059524Y61370000D01*
X32107143Y61322381D01*
X33011905Y61417619D02*
X32535714Y61417619D01*
X32488095Y60941429D01*
X32535714Y60989048D01*
X32630952Y61036667D01*
X32869048Y61036667D01*
X32964286Y60989048D01*
X33011905Y60941429D01*
X33059524Y60846190D01*
X33059524Y60608095D01*
X33011905Y60512857D01*
X32964286Y60465238D01*
X32869048Y60417619D01*
X32630952Y60417619D01*
X32535714Y60465238D01*
X32488095Y60512857D01*
X33535714Y60417619D02*
X33726190Y60417619D01*
X33821429Y60465238D01*
X33869048Y60512857D01*
X33964286Y60655714D01*
X34011905Y60846190D01*
X34011905Y61227143D01*
X33964286Y61322381D01*
X33916667Y61370000D01*
X33821429Y61417619D01*
X33630952Y61417619D01*
X33535714Y61370000D01*
X33488095Y61322381D01*
X33440476Y61227143D01*
X33440476Y60989048D01*
X33488095Y60893810D01*
X33535714Y60846190D01*
X33630952Y60798571D01*
X33821429Y60798571D01*
X33916667Y60846190D01*
X33964286Y60893810D01*
X34011905Y60989048D01*
X34916667Y61417619D02*
X34440476Y61417619D01*
X34392857Y60941429D01*
X34440476Y60989048D01*
X34535714Y61036667D01*
X34773810Y61036667D01*
X34869048Y60989048D01*
X34916667Y60941429D01*
X34964286Y60846190D01*
X34964286Y60608095D01*
X34916667Y60512857D01*
X34869048Y60465238D01*
X34773810Y60417619D01*
X34535714Y60417619D01*
X34440476Y60465238D01*
X34392857Y60512857D01*
X74327143Y9825238D02*
X74374762Y9872857D01*
X74422381Y9825238D01*
X74374762Y9777619D01*
X74327143Y9825238D01*
X74422381Y9825238D01*
X73755714Y10730000D02*
X74422381Y10730000D01*
X73374762Y10491904D02*
X74089048Y10253809D01*
X74089048Y10872857D01*
X73422381Y11158571D02*
X73422381Y11825238D01*
X74422381Y11396666D01*
X73755714Y12634762D02*
X74422381Y12634762D01*
X73755714Y12206190D02*
X74279524Y12206190D01*
X74374762Y12253809D01*
X74422381Y12349047D01*
X74422381Y12491905D01*
X74374762Y12587143D01*
X74327143Y12634762D01*
X81327143Y24985238D02*
X81374762Y25032857D01*
X81422381Y24985238D01*
X81374762Y24937619D01*
X81327143Y24985238D01*
X81422381Y24985238D01*
X80755714Y25890000D02*
X81422381Y25890000D01*
X80374762Y25651904D02*
X81089048Y25413809D01*
X81089048Y26032857D01*
X80422381Y26318571D02*
X80422381Y26985238D01*
X81422381Y26556666D01*
X80755714Y27794762D02*
X81422381Y27794762D01*
X80755714Y27366190D02*
X81279524Y27366190D01*
X81374762Y27413809D01*
X81422381Y27509047D01*
X81422381Y27651905D01*
X81374762Y27747143D01*
X81327143Y27794762D01*
X34917143Y15541429D02*
X34964762Y15589048D01*
X35012381Y15541429D01*
X34964762Y15493810D01*
X34917143Y15541429D01*
X35012381Y15541429D01*
X35012381Y16541429D02*
X35012381Y15970000D01*
X35012381Y16255714D02*
X34012381Y16255714D01*
X34155238Y16160476D01*
X34250476Y16065238D01*
X34298095Y15970000D01*
X34345714Y17398572D02*
X35012381Y17398572D01*
X34345714Y16970000D02*
X34869524Y16970000D01*
X34964762Y17017619D01*
X35012381Y17112857D01*
X35012381Y17255715D01*
X34964762Y17350953D01*
X34917143Y17398572D01*
X64817143Y26971429D02*
X64864762Y27019048D01*
X64912381Y26971429D01*
X64864762Y26923810D01*
X64817143Y26971429D01*
X64912381Y26971429D01*
X64912381Y27971429D02*
X64912381Y27400000D01*
X64912381Y27685714D02*
X63912381Y27685714D01*
X64055238Y27590476D01*
X64150476Y27495238D01*
X64198095Y27400000D01*
X64245714Y28828572D02*
X64912381Y28828572D01*
X64245714Y28400000D02*
X64769524Y28400000D01*
X64864762Y28447619D01*
X64912381Y28542857D01*
X64912381Y28685715D01*
X64864762Y28780953D01*
X64817143Y28828572D01*
X86741429Y29572857D02*
X86789048Y29525238D01*
X86741429Y29477619D01*
X86693810Y29525238D01*
X86741429Y29572857D01*
X86741429Y29477619D01*
X87741429Y29477619D02*
X87170000Y29477619D01*
X87455714Y29477619D02*
X87455714Y30477619D01*
X87360476Y30334762D01*
X87265238Y30239524D01*
X87170000Y30191905D01*
X88598572Y30144286D02*
X88598572Y29477619D01*
X88170000Y30144286D02*
X88170000Y29620476D01*
X88217619Y29525238D01*
X88312857Y29477619D01*
X88455715Y29477619D01*
X88550953Y29525238D01*
X88598572Y29572857D01*
X63111143Y72064619D02*
X62634952Y72064619D01*
X62634952Y73064619D01*
X63444476Y72588429D02*
X63777810Y72588429D01*
X63920667Y72064619D02*
X63444476Y72064619D01*
X63444476Y73064619D01*
X63920667Y73064619D01*
X64349238Y72064619D02*
X64349238Y73064619D01*
X64587333Y73064619D01*
X64730191Y73017000D01*
X64825429Y72921762D01*
X64873048Y72826524D01*
X64920667Y72636048D01*
X64920667Y72493190D01*
X64873048Y72302714D01*
X64825429Y72207476D01*
X64730191Y72112238D01*
X64587333Y72064619D01*
X64349238Y72064619D01*
X63111143Y82224619D02*
X62634952Y82224619D01*
X62634952Y83224619D01*
X63444476Y82748429D02*
X63777810Y82748429D01*
X63920667Y82224619D02*
X63444476Y82224619D01*
X63444476Y83224619D01*
X63920667Y83224619D01*
X64349238Y82224619D02*
X64349238Y83224619D01*
X64587333Y83224619D01*
X64730191Y83177000D01*
X64825429Y83081762D01*
X64873048Y82986524D01*
X64920667Y82796048D01*
X64920667Y82653190D01*
X64873048Y82462714D01*
X64825429Y82367476D01*
X64730191Y82272238D01*
X64587333Y82224619D01*
X64349238Y82224619D01*
X59766667Y26130952D02*
X59766667Y26607143D01*
X60052381Y26035714D02*
X59052381Y26369047D01*
X60052381Y26702381D01*
X59052381Y26892857D02*
X59052381Y27464286D01*
X60052381Y27178571D02*
X59052381Y27178571D01*
X60052381Y27797619D02*
X59052381Y27797619D01*
X59766667Y28130953D01*
X59052381Y28464286D01*
X60052381Y28464286D01*
X59528571Y28940476D02*
X59528571Y29273810D01*
X60052381Y29416667D02*
X60052381Y28940476D01*
X59052381Y28940476D01*
X59052381Y29416667D01*
X59100000Y30369048D02*
X59052381Y30273810D01*
X59052381Y30130953D01*
X59100000Y29988095D01*
X59195238Y29892857D01*
X59290476Y29845238D01*
X59480952Y29797619D01*
X59623810Y29797619D01*
X59814286Y29845238D01*
X59909524Y29892857D01*
X60004762Y29988095D01*
X60052381Y30130953D01*
X60052381Y30226191D01*
X60004762Y30369048D01*
X59957143Y30416667D01*
X59623810Y30416667D01*
X59623810Y30226191D01*
X59766667Y30797619D02*
X59766667Y31273810D01*
X60052381Y30702381D02*
X59052381Y31035714D01*
X60052381Y31369048D01*
X59052381Y31607143D02*
X59052381Y32226191D01*
X59433333Y31892857D01*
X59433333Y32035715D01*
X59480952Y32130953D01*
X59528571Y32178572D01*
X59623810Y32226191D01*
X59861905Y32226191D01*
X59957143Y32178572D01*
X60004762Y32130953D01*
X60052381Y32035715D01*
X60052381Y31750000D01*
X60004762Y31654762D01*
X59957143Y31607143D01*
X59147619Y32607143D02*
X59100000Y32654762D01*
X59052381Y32750000D01*
X59052381Y32988096D01*
X59100000Y33083334D01*
X59147619Y33130953D01*
X59242857Y33178572D01*
X59338095Y33178572D01*
X59480952Y33130953D01*
X60052381Y32559524D01*
X60052381Y33178572D01*
X59480952Y33750000D02*
X59433333Y33654762D01*
X59385714Y33607143D01*
X59290476Y33559524D01*
X59242857Y33559524D01*
X59147619Y33607143D01*
X59100000Y33654762D01*
X59052381Y33750000D01*
X59052381Y33940477D01*
X59100000Y34035715D01*
X59147619Y34083334D01*
X59242857Y34130953D01*
X59290476Y34130953D01*
X59385714Y34083334D01*
X59433333Y34035715D01*
X59480952Y33940477D01*
X59480952Y33750000D01*
X59528571Y33654762D01*
X59576190Y33607143D01*
X59671429Y33559524D01*
X59861905Y33559524D01*
X59957143Y33607143D01*
X60004762Y33654762D01*
X60052381Y33750000D01*
X60052381Y33940477D01*
X60004762Y34035715D01*
X59957143Y34083334D01*
X59861905Y34130953D01*
X59671429Y34130953D01*
X59576190Y34083334D01*
X59528571Y34035715D01*
X59480952Y33940477D01*
X60052381Y34559524D02*
X59052381Y34559524D01*
X59052381Y34940477D01*
X59100000Y35035715D01*
X59147619Y35083334D01*
X59242857Y35130953D01*
X59385714Y35130953D01*
X59480952Y35083334D01*
X59528571Y35035715D01*
X59576190Y34940477D01*
X59576190Y34559524D01*
X59671429Y35559524D02*
X59671429Y36321429D01*
X60052381Y36797619D02*
X59052381Y36797619D01*
X59052381Y37178572D01*
X59100000Y37273810D01*
X59147619Y37321429D01*
X59242857Y37369048D01*
X59385714Y37369048D01*
X59480952Y37321429D01*
X59528571Y37273810D01*
X59576190Y37178572D01*
X59576190Y36797619D01*
X70524762Y19627619D02*
X69953333Y19627619D01*
X70239047Y19627619D02*
X70239047Y20627619D01*
X70143809Y20484762D01*
X70048571Y20389524D01*
X69953333Y20341905D01*
X70953333Y19627619D02*
X70953333Y20627619D01*
X71048571Y20008571D02*
X71334286Y19627619D01*
X71334286Y20294286D02*
X70953333Y19913333D01*
X71715238Y20532381D02*
X71762857Y20580000D01*
X71858095Y20627619D01*
X72096191Y20627619D01*
X72191429Y20580000D01*
X72239048Y20532381D01*
X72286667Y20437143D01*
X72286667Y20341905D01*
X72239048Y20199048D01*
X71667619Y19627619D01*
X72286667Y19627619D01*
X70524762Y24707619D02*
X69953333Y24707619D01*
X70239047Y24707619D02*
X70239047Y25707619D01*
X70143809Y25564762D01*
X70048571Y25469524D01*
X69953333Y25421905D01*
X70953333Y24707619D02*
X70953333Y25707619D01*
X71048571Y25088571D02*
X71334286Y24707619D01*
X71334286Y25374286D02*
X70953333Y24993333D01*
X71715238Y25612381D02*
X71762857Y25660000D01*
X71858095Y25707619D01*
X72096191Y25707619D01*
X72191429Y25660000D01*
X72239048Y25612381D01*
X72286667Y25517143D01*
X72286667Y25421905D01*
X72239048Y25279048D01*
X71667619Y24707619D01*
X72286667Y24707619D01*
X45505715Y80827619D02*
X44934286Y80827619D01*
X45220000Y80827619D02*
X45220000Y81827619D01*
X45124762Y81684762D01*
X45029524Y81589524D01*
X44934286Y81541905D01*
X45934286Y80827619D02*
X45934286Y81827619D01*
X46505715Y80827619D02*
X46077143Y81399048D01*
X46505715Y81827619D02*
X45934286Y81256190D01*
X50585715Y88447619D02*
X50014286Y88447619D01*
X50300000Y88447619D02*
X50300000Y89447619D01*
X50204762Y89304762D01*
X50109524Y89209524D01*
X50014286Y89161905D01*
X51014286Y88447619D02*
X51014286Y89447619D01*
X51585715Y88447619D02*
X51157143Y89019048D01*
X51585715Y89447619D02*
X51014286Y88876190D01*
X75985715Y80827619D02*
X75414286Y80827619D01*
X75700000Y80827619D02*
X75700000Y81827619D01*
X75604762Y81684762D01*
X75509524Y81589524D01*
X75414286Y81541905D01*
X76414286Y80827619D02*
X76414286Y81827619D01*
X76985715Y80827619D02*
X76557143Y81399048D01*
X76985715Y81827619D02*
X76414286Y81256190D01*
X81065715Y88447619D02*
X80494286Y88447619D01*
X80780000Y88447619D02*
X80780000Y89447619D01*
X80684762Y89304762D01*
X80589524Y89209524D01*
X80494286Y89161905D01*
X81494286Y88447619D02*
X81494286Y89447619D01*
X82065715Y88447619D02*
X81637143Y89019048D01*
X82065715Y89447619D02*
X81494286Y88876190D01*
X58205714Y49538096D02*
X58872381Y49538096D01*
X57824762Y49300000D02*
X58539048Y49061905D01*
X58539048Y49680953D01*
X57872381Y49966667D02*
X57872381Y50633334D01*
X58872381Y50204762D01*
X57872381Y51204762D02*
X57872381Y51300001D01*
X57920000Y51395239D01*
X57967619Y51442858D01*
X58062857Y51490477D01*
X58253333Y51538096D01*
X58491429Y51538096D01*
X58681905Y51490477D01*
X58777143Y51442858D01*
X58824762Y51395239D01*
X58872381Y51300001D01*
X58872381Y51204762D01*
X58824762Y51109524D01*
X58777143Y51061905D01*
X58681905Y51014286D01*
X58491429Y50966667D01*
X58253333Y50966667D01*
X58062857Y51014286D01*
X57967619Y51061905D01*
X57920000Y51109524D01*
X57872381Y51204762D01*
X58872381Y52538096D02*
X58396190Y52204762D01*
X58872381Y51966667D02*
X57872381Y51966667D01*
X57872381Y52347620D01*
X57920000Y52442858D01*
X57967619Y52490477D01*
X58062857Y52538096D01*
X58205714Y52538096D01*
X58300952Y52490477D01*
X58348571Y52442858D01*
X58396190Y52347620D01*
X58396190Y51966667D01*
X60745714Y49538096D02*
X61412381Y49538096D01*
X60364762Y49300000D02*
X61079048Y49061905D01*
X61079048Y49680953D01*
X60412381Y49966667D02*
X60412381Y50633334D01*
X61412381Y50204762D01*
X60412381Y51204762D02*
X60412381Y51300001D01*
X60460000Y51395239D01*
X60507619Y51442858D01*
X60602857Y51490477D01*
X60793333Y51538096D01*
X61031429Y51538096D01*
X61221905Y51490477D01*
X61317143Y51442858D01*
X61364762Y51395239D01*
X61412381Y51300001D01*
X61412381Y51204762D01*
X61364762Y51109524D01*
X61317143Y51061905D01*
X61221905Y51014286D01*
X61031429Y50966667D01*
X60793333Y50966667D01*
X60602857Y51014286D01*
X60507619Y51061905D01*
X60460000Y51109524D01*
X60412381Y51204762D01*
X61412381Y52538096D02*
X60936190Y52204762D01*
X61412381Y51966667D02*
X60412381Y51966667D01*
X60412381Y52347620D01*
X60460000Y52442858D01*
X60507619Y52490477D01*
X60602857Y52538096D01*
X60745714Y52538096D01*
X60840952Y52490477D01*
X60888571Y52442858D01*
X60936190Y52347620D01*
X60936190Y51966667D01*
X94559524Y14787619D02*
X93988095Y14787619D01*
X94273809Y14787619D02*
X94273809Y15787619D01*
X94178571Y15644762D01*
X94083333Y15549524D01*
X93988095Y15501905D01*
X95178571Y15787619D02*
X95273810Y15787619D01*
X95369048Y15740000D01*
X95416667Y15692381D01*
X95464286Y15597143D01*
X95511905Y15406667D01*
X95511905Y15168571D01*
X95464286Y14978095D01*
X95416667Y14882857D01*
X95369048Y14835238D01*
X95273810Y14787619D01*
X95178571Y14787619D01*
X95083333Y14835238D01*
X95035714Y14882857D01*
X94988095Y14978095D01*
X94940476Y15168571D01*
X94940476Y15406667D01*
X94988095Y15597143D01*
X95035714Y15692381D01*
X95083333Y15740000D01*
X95178571Y15787619D01*
X95940476Y14787619D02*
X95940476Y15787619D01*
X96511905Y14787619D02*
X96083333Y15359048D01*
X96511905Y15787619D02*
X95940476Y15216190D01*
X111069524Y14787619D02*
X110498095Y14787619D01*
X110783809Y14787619D02*
X110783809Y15787619D01*
X110688571Y15644762D01*
X110593333Y15549524D01*
X110498095Y15501905D01*
X111688571Y15787619D02*
X111783810Y15787619D01*
X111879048Y15740000D01*
X111926667Y15692381D01*
X111974286Y15597143D01*
X112021905Y15406667D01*
X112021905Y15168571D01*
X111974286Y14978095D01*
X111926667Y14882857D01*
X111879048Y14835238D01*
X111783810Y14787619D01*
X111688571Y14787619D01*
X111593333Y14835238D01*
X111545714Y14882857D01*
X111498095Y14978095D01*
X111450476Y15168571D01*
X111450476Y15406667D01*
X111498095Y15597143D01*
X111545714Y15692381D01*
X111593333Y15740000D01*
X111688571Y15787619D01*
X112450476Y14787619D02*
X112450476Y15787619D01*
X113021905Y14787619D02*
X112593333Y15359048D01*
X113021905Y15787619D02*
X112450476Y15216190D01*
X92519999Y24857619D02*
X92519999Y25857619D01*
X92900952Y25857619D01*
X92996190Y25810000D01*
X93043809Y25762381D01*
X93091428Y25667143D01*
X93091428Y25524286D01*
X93043809Y25429048D01*
X92996190Y25381429D01*
X92900952Y25333810D01*
X92519999Y25333810D01*
X93948571Y25524286D02*
X93948571Y24857619D01*
X93519999Y25524286D02*
X93519999Y25000476D01*
X93567618Y24905238D01*
X93662856Y24857619D01*
X93805714Y24857619D01*
X93900952Y24905238D01*
X93948571Y24952857D01*
X94377142Y24905238D02*
X94472380Y24857619D01*
X94662856Y24857619D01*
X94758095Y24905238D01*
X94805714Y25000476D01*
X94805714Y25048095D01*
X94758095Y25143333D01*
X94662856Y25190952D01*
X94519999Y25190952D01*
X94424761Y25238571D01*
X94377142Y25333810D01*
X94377142Y25381429D01*
X94424761Y25476667D01*
X94519999Y25524286D01*
X94662856Y25524286D01*
X94758095Y25476667D01*
X95234285Y24857619D02*
X95234285Y25857619D01*
X95662857Y24857619D02*
X95662857Y25381429D01*
X95615238Y25476667D01*
X95520000Y25524286D01*
X95377142Y25524286D01*
X95281904Y25476667D01*
X95234285Y25429048D01*
X96472381Y25381429D02*
X96615238Y25333810D01*
X96662857Y25286190D01*
X96710476Y25190952D01*
X96710476Y25048095D01*
X96662857Y24952857D01*
X96615238Y24905238D01*
X96520000Y24857619D01*
X96139047Y24857619D01*
X96139047Y25857619D01*
X96472381Y25857619D01*
X96567619Y25810000D01*
X96615238Y25762381D01*
X96662857Y25667143D01*
X96662857Y25571905D01*
X96615238Y25476667D01*
X96567619Y25429048D01*
X96472381Y25381429D01*
X96139047Y25381429D01*
X97567619Y25524286D02*
X97567619Y24857619D01*
X97139047Y25524286D02*
X97139047Y25000476D01*
X97186666Y24905238D01*
X97281904Y24857619D01*
X97424762Y24857619D01*
X97520000Y24905238D01*
X97567619Y24952857D01*
X97900952Y25524286D02*
X98281904Y25524286D01*
X98043809Y25857619D02*
X98043809Y25000476D01*
X98091428Y24905238D01*
X98186666Y24857619D01*
X98281904Y24857619D01*
X98472381Y25524286D02*
X98853333Y25524286D01*
X98615238Y25857619D02*
X98615238Y25000476D01*
X98662857Y24905238D01*
X98758095Y24857619D01*
X98853333Y24857619D01*
X99329524Y24857619D02*
X99234286Y24905238D01*
X99186667Y24952857D01*
X99139048Y25048095D01*
X99139048Y25333810D01*
X99186667Y25429048D01*
X99234286Y25476667D01*
X99329524Y25524286D01*
X99472382Y25524286D01*
X99567620Y25476667D01*
X99615239Y25429048D01*
X99662858Y25333810D01*
X99662858Y25048095D01*
X99615239Y24952857D01*
X99567620Y24905238D01*
X99472382Y24857619D01*
X99329524Y24857619D01*
X100091429Y25524286D02*
X100091429Y24857619D01*
X100091429Y25429048D02*
X100139048Y25476667D01*
X100234286Y25524286D01*
X100377144Y25524286D01*
X100472382Y25476667D01*
X100520001Y25381429D01*
X100520001Y24857619D01*
X109029999Y24857619D02*
X109029999Y25857619D01*
X109410952Y25857619D01*
X109506190Y25810000D01*
X109553809Y25762381D01*
X109601428Y25667143D01*
X109601428Y25524286D01*
X109553809Y25429048D01*
X109506190Y25381429D01*
X109410952Y25333810D01*
X109029999Y25333810D01*
X110458571Y25524286D02*
X110458571Y24857619D01*
X110029999Y25524286D02*
X110029999Y25000476D01*
X110077618Y24905238D01*
X110172856Y24857619D01*
X110315714Y24857619D01*
X110410952Y24905238D01*
X110458571Y24952857D01*
X110887142Y24905238D02*
X110982380Y24857619D01*
X111172856Y24857619D01*
X111268095Y24905238D01*
X111315714Y25000476D01*
X111315714Y25048095D01*
X111268095Y25143333D01*
X111172856Y25190952D01*
X111029999Y25190952D01*
X110934761Y25238571D01*
X110887142Y25333810D01*
X110887142Y25381429D01*
X110934761Y25476667D01*
X111029999Y25524286D01*
X111172856Y25524286D01*
X111268095Y25476667D01*
X111744285Y24857619D02*
X111744285Y25857619D01*
X112172857Y24857619D02*
X112172857Y25381429D01*
X112125238Y25476667D01*
X112030000Y25524286D01*
X111887142Y25524286D01*
X111791904Y25476667D01*
X111744285Y25429048D01*
X112982381Y25381429D02*
X113125238Y25333810D01*
X113172857Y25286190D01*
X113220476Y25190952D01*
X113220476Y25048095D01*
X113172857Y24952857D01*
X113125238Y24905238D01*
X113030000Y24857619D01*
X112649047Y24857619D01*
X112649047Y25857619D01*
X112982381Y25857619D01*
X113077619Y25810000D01*
X113125238Y25762381D01*
X113172857Y25667143D01*
X113172857Y25571905D01*
X113125238Y25476667D01*
X113077619Y25429048D01*
X112982381Y25381429D01*
X112649047Y25381429D01*
X114077619Y25524286D02*
X114077619Y24857619D01*
X113649047Y25524286D02*
X113649047Y25000476D01*
X113696666Y24905238D01*
X113791904Y24857619D01*
X113934762Y24857619D01*
X114030000Y24905238D01*
X114077619Y24952857D01*
X114410952Y25524286D02*
X114791904Y25524286D01*
X114553809Y25857619D02*
X114553809Y25000476D01*
X114601428Y24905238D01*
X114696666Y24857619D01*
X114791904Y24857619D01*
X114982381Y25524286D02*
X115363333Y25524286D01*
X115125238Y25857619D02*
X115125238Y25000476D01*
X115172857Y24905238D01*
X115268095Y24857619D01*
X115363333Y24857619D01*
X115839524Y24857619D02*
X115744286Y24905238D01*
X115696667Y24952857D01*
X115649048Y25048095D01*
X115649048Y25333810D01*
X115696667Y25429048D01*
X115744286Y25476667D01*
X115839524Y25524286D01*
X115982382Y25524286D01*
X116077620Y25476667D01*
X116125239Y25429048D01*
X116172858Y25333810D01*
X116172858Y25048095D01*
X116125239Y24952857D01*
X116077620Y24905238D01*
X115982382Y24857619D01*
X115839524Y24857619D01*
X116601429Y25524286D02*
X116601429Y24857619D01*
X116601429Y25429048D02*
X116649048Y25476667D01*
X116744286Y25524286D01*
X116887144Y25524286D01*
X116982382Y25476667D01*
X117030001Y25381429D01*
X117030001Y24857619D01*
X39872381Y8787143D02*
X38872381Y8787143D01*
X38872381Y9025238D01*
X38920000Y9168096D01*
X39015238Y9263334D01*
X39110476Y9310953D01*
X39300952Y9358572D01*
X39443810Y9358572D01*
X39634286Y9310953D01*
X39729524Y9263334D01*
X39824762Y9168096D01*
X39872381Y9025238D01*
X39872381Y8787143D01*
X39824762Y9739524D02*
X39872381Y9882381D01*
X39872381Y10120477D01*
X39824762Y10215715D01*
X39777143Y10263334D01*
X39681905Y10310953D01*
X39586667Y10310953D01*
X39491429Y10263334D01*
X39443810Y10215715D01*
X39396190Y10120477D01*
X39348571Y9930000D01*
X39300952Y9834762D01*
X39253333Y9787143D01*
X39158095Y9739524D01*
X39062857Y9739524D01*
X38967619Y9787143D01*
X38920000Y9834762D01*
X38872381Y9930000D01*
X38872381Y10168096D01*
X38920000Y10310953D01*
X39872381Y11263334D02*
X39872381Y10691905D01*
X39872381Y10977619D02*
X38872381Y10977619D01*
X39015238Y10882381D01*
X39110476Y10787143D01*
X39158095Y10691905D01*
X38872381Y11596667D02*
X38872381Y12215715D01*
X39253333Y11882381D01*
X39253333Y12025239D01*
X39300952Y12120477D01*
X39348571Y12168096D01*
X39443810Y12215715D01*
X39681905Y12215715D01*
X39777143Y12168096D01*
X39824762Y12120477D01*
X39872381Y12025239D01*
X39872381Y11739524D01*
X39824762Y11644286D01*
X39777143Y11596667D01*
X38872381Y12834762D02*
X38872381Y12930001D01*
X38920000Y13025239D01*
X38967619Y13072858D01*
X39062857Y13120477D01*
X39253333Y13168096D01*
X39491429Y13168096D01*
X39681905Y13120477D01*
X39777143Y13072858D01*
X39824762Y13025239D01*
X39872381Y12930001D01*
X39872381Y12834762D01*
X39824762Y12739524D01*
X39777143Y12691905D01*
X39681905Y12644286D01*
X39491429Y12596667D01*
X39253333Y12596667D01*
X39062857Y12644286D01*
X38967619Y12691905D01*
X38920000Y12739524D01*
X38872381Y12834762D01*
X38872381Y13501429D02*
X38872381Y14168096D01*
X39872381Y13739524D01*
X46268095Y61417619D02*
X46934762Y61417619D01*
X46506190Y60417619D01*
X47744286Y61084286D02*
X47744286Y60417619D01*
X47506190Y61465238D02*
X47268095Y60750952D01*
X47887143Y60750952D01*
X48268095Y60417619D02*
X48268095Y61417619D01*
X48268095Y60941429D02*
X48839524Y60941429D01*
X48839524Y60417619D02*
X48839524Y61417619D01*
X49887143Y60512857D02*
X49839524Y60465238D01*
X49696667Y60417619D01*
X49601429Y60417619D01*
X49458571Y60465238D01*
X49363333Y60560476D01*
X49315714Y60655714D01*
X49268095Y60846190D01*
X49268095Y60989048D01*
X49315714Y61179524D01*
X49363333Y61274762D01*
X49458571Y61370000D01*
X49601429Y61417619D01*
X49696667Y61417619D01*
X49839524Y61370000D01*
X49887143Y61322381D01*
X50791905Y61417619D02*
X50315714Y61417619D01*
X50268095Y60941429D01*
X50315714Y60989048D01*
X50410952Y61036667D01*
X50649048Y61036667D01*
X50744286Y60989048D01*
X50791905Y60941429D01*
X50839524Y60846190D01*
X50839524Y60608095D01*
X50791905Y60512857D01*
X50744286Y60465238D01*
X50649048Y60417619D01*
X50410952Y60417619D01*
X50315714Y60465238D01*
X50268095Y60512857D01*
X51315714Y60417619D02*
X51506190Y60417619D01*
X51601429Y60465238D01*
X51649048Y60512857D01*
X51744286Y60655714D01*
X51791905Y60846190D01*
X51791905Y61227143D01*
X51744286Y61322381D01*
X51696667Y61370000D01*
X51601429Y61417619D01*
X51410952Y61417619D01*
X51315714Y61370000D01*
X51268095Y61322381D01*
X51220476Y61227143D01*
X51220476Y60989048D01*
X51268095Y60893810D01*
X51315714Y60846190D01*
X51410952Y60798571D01*
X51601429Y60798571D01*
X51696667Y60846190D01*
X51744286Y60893810D01*
X51791905Y60989048D01*
X52696667Y61417619D02*
X52220476Y61417619D01*
X52172857Y60941429D01*
X52220476Y60989048D01*
X52315714Y61036667D01*
X52553810Y61036667D01*
X52649048Y60989048D01*
X52696667Y60941429D01*
X52744286Y60846190D01*
X52744286Y60608095D01*
X52696667Y60512857D01*
X52649048Y60465238D01*
X52553810Y60417619D01*
X52315714Y60417619D01*
X52220476Y60465238D01*
X52172857Y60512857D01*
X66588095Y61417619D02*
X67254762Y61417619D01*
X66826190Y60417619D01*
X68064286Y61084286D02*
X68064286Y60417619D01*
X67826190Y61465238D02*
X67588095Y60750952D01*
X68207143Y60750952D01*
X68588095Y60417619D02*
X68588095Y61417619D01*
X68588095Y60941429D02*
X69159524Y60941429D01*
X69159524Y60417619D02*
X69159524Y61417619D01*
X70207143Y60512857D02*
X70159524Y60465238D01*
X70016667Y60417619D01*
X69921429Y60417619D01*
X69778571Y60465238D01*
X69683333Y60560476D01*
X69635714Y60655714D01*
X69588095Y60846190D01*
X69588095Y60989048D01*
X69635714Y61179524D01*
X69683333Y61274762D01*
X69778571Y61370000D01*
X69921429Y61417619D01*
X70016667Y61417619D01*
X70159524Y61370000D01*
X70207143Y61322381D01*
X71111905Y61417619D02*
X70635714Y61417619D01*
X70588095Y60941429D01*
X70635714Y60989048D01*
X70730952Y61036667D01*
X70969048Y61036667D01*
X71064286Y60989048D01*
X71111905Y60941429D01*
X71159524Y60846190D01*
X71159524Y60608095D01*
X71111905Y60512857D01*
X71064286Y60465238D01*
X70969048Y60417619D01*
X70730952Y60417619D01*
X70635714Y60465238D01*
X70588095Y60512857D01*
X71635714Y60417619D02*
X71826190Y60417619D01*
X71921429Y60465238D01*
X71969048Y60512857D01*
X72064286Y60655714D01*
X72111905Y60846190D01*
X72111905Y61227143D01*
X72064286Y61322381D01*
X72016667Y61370000D01*
X71921429Y61417619D01*
X71730952Y61417619D01*
X71635714Y61370000D01*
X71588095Y61322381D01*
X71540476Y61227143D01*
X71540476Y60989048D01*
X71588095Y60893810D01*
X71635714Y60846190D01*
X71730952Y60798571D01*
X71921429Y60798571D01*
X72016667Y60846190D01*
X72064286Y60893810D01*
X72111905Y60989048D01*
X73016667Y61417619D02*
X72540476Y61417619D01*
X72492857Y60941429D01*
X72540476Y60989048D01*
X72635714Y61036667D01*
X72873810Y61036667D01*
X72969048Y60989048D01*
X73016667Y60941429D01*
X73064286Y60846190D01*
X73064286Y60608095D01*
X73016667Y60512857D01*
X72969048Y60465238D01*
X72873810Y60417619D01*
X72635714Y60417619D01*
X72540476Y60465238D01*
X72492857Y60512857D01*
X84368095Y61417619D02*
X85034762Y61417619D01*
X84606190Y60417619D01*
X85844286Y61084286D02*
X85844286Y60417619D01*
X85606190Y61465238D02*
X85368095Y60750952D01*
X85987143Y60750952D01*
X86368095Y60417619D02*
X86368095Y61417619D01*
X86368095Y60941429D02*
X86939524Y60941429D01*
X86939524Y60417619D02*
X86939524Y61417619D01*
X87987143Y60512857D02*
X87939524Y60465238D01*
X87796667Y60417619D01*
X87701429Y60417619D01*
X87558571Y60465238D01*
X87463333Y60560476D01*
X87415714Y60655714D01*
X87368095Y60846190D01*
X87368095Y60989048D01*
X87415714Y61179524D01*
X87463333Y61274762D01*
X87558571Y61370000D01*
X87701429Y61417619D01*
X87796667Y61417619D01*
X87939524Y61370000D01*
X87987143Y61322381D01*
X88891905Y61417619D02*
X88415714Y61417619D01*
X88368095Y60941429D01*
X88415714Y60989048D01*
X88510952Y61036667D01*
X88749048Y61036667D01*
X88844286Y60989048D01*
X88891905Y60941429D01*
X88939524Y60846190D01*
X88939524Y60608095D01*
X88891905Y60512857D01*
X88844286Y60465238D01*
X88749048Y60417619D01*
X88510952Y60417619D01*
X88415714Y60465238D01*
X88368095Y60512857D01*
X89415714Y60417619D02*
X89606190Y60417619D01*
X89701429Y60465238D01*
X89749048Y60512857D01*
X89844286Y60655714D01*
X89891905Y60846190D01*
X89891905Y61227143D01*
X89844286Y61322381D01*
X89796667Y61370000D01*
X89701429Y61417619D01*
X89510952Y61417619D01*
X89415714Y61370000D01*
X89368095Y61322381D01*
X89320476Y61227143D01*
X89320476Y60989048D01*
X89368095Y60893810D01*
X89415714Y60846190D01*
X89510952Y60798571D01*
X89701429Y60798571D01*
X89796667Y60846190D01*
X89844286Y60893810D01*
X89891905Y60989048D01*
X90796667Y61417619D02*
X90320476Y61417619D01*
X90272857Y60941429D01*
X90320476Y60989048D01*
X90415714Y61036667D01*
X90653810Y61036667D01*
X90749048Y60989048D01*
X90796667Y60941429D01*
X90844286Y60846190D01*
X90844286Y60608095D01*
X90796667Y60512857D01*
X90749048Y60465238D01*
X90653810Y60417619D01*
X90415714Y60417619D01*
X90320476Y60465238D01*
X90272857Y60512857D01*
X39346666Y85637619D02*
X40013333Y85637619D01*
X39584761Y84637619D01*
X40156190Y84542381D02*
X40918095Y84542381D01*
X41108571Y84685238D02*
X41203809Y84637619D01*
X41394285Y84637619D01*
X41489524Y84685238D01*
X41537143Y84780476D01*
X41537143Y84828095D01*
X41489524Y84923333D01*
X41394285Y84970952D01*
X41251428Y84970952D01*
X41156190Y85018571D01*
X41108571Y85113810D01*
X41108571Y85161429D01*
X41156190Y85256667D01*
X41251428Y85304286D01*
X41394285Y85304286D01*
X41489524Y85256667D01*
X42346667Y84685238D02*
X42251429Y84637619D01*
X42060952Y84637619D01*
X41965714Y84685238D01*
X41918095Y84780476D01*
X41918095Y85161429D01*
X41965714Y85256667D01*
X42060952Y85304286D01*
X42251429Y85304286D01*
X42346667Y85256667D01*
X42394286Y85161429D01*
X42394286Y85066190D01*
X41918095Y84970952D01*
X43251429Y85304286D02*
X43251429Y84494762D01*
X43203810Y84399524D01*
X43156191Y84351905D01*
X43060952Y84304286D01*
X42918095Y84304286D01*
X42822857Y84351905D01*
X43251429Y84685238D02*
X43156191Y84637619D01*
X42965714Y84637619D01*
X42870476Y84685238D01*
X42822857Y84732857D01*
X42775238Y84828095D01*
X42775238Y85113810D01*
X42822857Y85209048D01*
X42870476Y85256667D01*
X42965714Y85304286D01*
X43156191Y85304286D01*
X43251429Y85256667D01*
X43727619Y84637619D02*
X43727619Y85304286D01*
X43727619Y85209048D02*
X43775238Y85256667D01*
X43870476Y85304286D01*
X44013334Y85304286D01*
X44108572Y85256667D01*
X44156191Y85161429D01*
X44156191Y84637619D01*
X44156191Y85161429D02*
X44203810Y85256667D01*
X44299048Y85304286D01*
X44441905Y85304286D01*
X44537143Y85256667D01*
X44584762Y85161429D01*
X44584762Y84637619D01*
X45441905Y84685238D02*
X45346667Y84637619D01*
X45156190Y84637619D01*
X45060952Y84685238D01*
X45013333Y84780476D01*
X45013333Y85161429D01*
X45060952Y85256667D01*
X45156190Y85304286D01*
X45346667Y85304286D01*
X45441905Y85256667D01*
X45489524Y85161429D01*
X45489524Y85066190D01*
X45013333Y84970952D01*
X45918095Y85304286D02*
X45918095Y84637619D01*
X45918095Y85209048D02*
X45965714Y85256667D01*
X46060952Y85304286D01*
X46203810Y85304286D01*
X46299048Y85256667D01*
X46346667Y85161429D01*
X46346667Y84637619D01*
X46680000Y85304286D02*
X47060952Y85304286D01*
X46822857Y85637619D02*
X46822857Y84780476D01*
X46870476Y84685238D01*
X46965714Y84637619D01*
X47060952Y84637619D01*
X69826666Y85637619D02*
X70493333Y85637619D01*
X70064761Y84637619D01*
X70636190Y84542381D02*
X71398095Y84542381D01*
X71588571Y84685238D02*
X71683809Y84637619D01*
X71874285Y84637619D01*
X71969524Y84685238D01*
X72017143Y84780476D01*
X72017143Y84828095D01*
X71969524Y84923333D01*
X71874285Y84970952D01*
X71731428Y84970952D01*
X71636190Y85018571D01*
X71588571Y85113810D01*
X71588571Y85161429D01*
X71636190Y85256667D01*
X71731428Y85304286D01*
X71874285Y85304286D01*
X71969524Y85256667D01*
X72826667Y84685238D02*
X72731429Y84637619D01*
X72540952Y84637619D01*
X72445714Y84685238D01*
X72398095Y84780476D01*
X72398095Y85161429D01*
X72445714Y85256667D01*
X72540952Y85304286D01*
X72731429Y85304286D01*
X72826667Y85256667D01*
X72874286Y85161429D01*
X72874286Y85066190D01*
X72398095Y84970952D01*
X73731429Y85304286D02*
X73731429Y84494762D01*
X73683810Y84399524D01*
X73636191Y84351905D01*
X73540952Y84304286D01*
X73398095Y84304286D01*
X73302857Y84351905D01*
X73731429Y84685238D02*
X73636191Y84637619D01*
X73445714Y84637619D01*
X73350476Y84685238D01*
X73302857Y84732857D01*
X73255238Y84828095D01*
X73255238Y85113810D01*
X73302857Y85209048D01*
X73350476Y85256667D01*
X73445714Y85304286D01*
X73636191Y85304286D01*
X73731429Y85256667D01*
X74207619Y84637619D02*
X74207619Y85304286D01*
X74207619Y85209048D02*
X74255238Y85256667D01*
X74350476Y85304286D01*
X74493334Y85304286D01*
X74588572Y85256667D01*
X74636191Y85161429D01*
X74636191Y84637619D01*
X74636191Y85161429D02*
X74683810Y85256667D01*
X74779048Y85304286D01*
X74921905Y85304286D01*
X75017143Y85256667D01*
X75064762Y85161429D01*
X75064762Y84637619D01*
X75921905Y84685238D02*
X75826667Y84637619D01*
X75636190Y84637619D01*
X75540952Y84685238D01*
X75493333Y84780476D01*
X75493333Y85161429D01*
X75540952Y85256667D01*
X75636190Y85304286D01*
X75826667Y85304286D01*
X75921905Y85256667D01*
X75969524Y85161429D01*
X75969524Y85066190D01*
X75493333Y84970952D01*
X76398095Y85304286D02*
X76398095Y84637619D01*
X76398095Y85209048D02*
X76445714Y85256667D01*
X76540952Y85304286D01*
X76683810Y85304286D01*
X76779048Y85256667D01*
X76826667Y85161429D01*
X76826667Y84637619D01*
X77160000Y85304286D02*
X77540952Y85304286D01*
X77302857Y85637619D02*
X77302857Y84780476D01*
X77350476Y84685238D01*
X77445714Y84637619D01*
X77540952Y84637619D01*
X55062381Y8294762D02*
X55062381Y7723333D01*
X55062381Y8009047D02*
X54062381Y8009047D01*
X54205238Y7913809D01*
X54300476Y7818571D01*
X54348095Y7723333D01*
X55062381Y8723333D02*
X54062381Y8723333D01*
X54681429Y8818571D02*
X55062381Y9104286D01*
X54395714Y9104286D02*
X54776667Y8723333D01*
X54157619Y9485238D02*
X54110000Y9532857D01*
X54062381Y9628095D01*
X54062381Y9866191D01*
X54110000Y9961429D01*
X54157619Y10009048D01*
X54252857Y10056667D01*
X54348095Y10056667D01*
X54490952Y10009048D01*
X55062381Y9437619D01*
X55062381Y10056667D01*
X52522381Y8294762D02*
X52522381Y7723333D01*
X52522381Y8009047D02*
X51522381Y8009047D01*
X51665238Y7913809D01*
X51760476Y7818571D01*
X51808095Y7723333D01*
X52522381Y8723333D02*
X51522381Y8723333D01*
X52141429Y8818571D02*
X52522381Y9104286D01*
X51855714Y9104286D02*
X52236667Y8723333D01*
X51617619Y9485238D02*
X51570000Y9532857D01*
X51522381Y9628095D01*
X51522381Y9866191D01*
X51570000Y9961429D01*
X51617619Y10009048D01*
X51712857Y10056667D01*
X51808095Y10056667D01*
X51950952Y10009048D01*
X52522381Y9437619D01*
X52522381Y10056667D01*
X49177143Y7104285D02*
X49224762Y7056666D01*
X49272381Y6913809D01*
X49272381Y6818571D01*
X49224762Y6675713D01*
X49129524Y6580475D01*
X49034286Y6532856D01*
X48843810Y6485237D01*
X48700952Y6485237D01*
X48510476Y6532856D01*
X48415238Y6580475D01*
X48320000Y6675713D01*
X48272381Y6818571D01*
X48272381Y6913809D01*
X48320000Y7056666D01*
X48367619Y7104285D01*
X49272381Y7532856D02*
X48605714Y7532856D01*
X48796190Y7532856D02*
X48700952Y7580475D01*
X48653333Y7628094D01*
X48605714Y7723332D01*
X48605714Y7818571D01*
X48605714Y8056666D02*
X49272381Y8294761D01*
X48605714Y8532857D02*
X49272381Y8294761D01*
X49510476Y8199523D01*
X49558095Y8151904D01*
X49605714Y8056666D01*
X49224762Y8866190D02*
X49272381Y8961428D01*
X49272381Y9151904D01*
X49224762Y9247143D01*
X49129524Y9294762D01*
X49081905Y9294762D01*
X48986667Y9247143D01*
X48939048Y9151904D01*
X48939048Y9009047D01*
X48891429Y8913809D01*
X48796190Y8866190D01*
X48748571Y8866190D01*
X48653333Y8913809D01*
X48605714Y9009047D01*
X48605714Y9151904D01*
X48653333Y9247143D01*
X48605714Y9580476D02*
X48605714Y9961428D01*
X48272381Y9723333D02*
X49129524Y9723333D01*
X49224762Y9770952D01*
X49272381Y9866190D01*
X49272381Y9961428D01*
X49272381Y10723334D02*
X48748571Y10723334D01*
X48653333Y10675715D01*
X48605714Y10580477D01*
X48605714Y10390000D01*
X48653333Y10294762D01*
X49224762Y10723334D02*
X49272381Y10628096D01*
X49272381Y10390000D01*
X49224762Y10294762D01*
X49129524Y10247143D01*
X49034286Y10247143D01*
X48939048Y10294762D01*
X48891429Y10390000D01*
X48891429Y10628096D01*
X48843810Y10723334D01*
X49272381Y11342381D02*
X49224762Y11247143D01*
X49129524Y11199524D01*
X48272381Y11199524D01*
X121062858Y80573619D02*
X120491429Y80573619D01*
X120777143Y80573619D02*
X120777143Y81573619D01*
X120681905Y81430762D01*
X120586667Y81335524D01*
X120491429Y81287905D01*
X121491429Y81240286D02*
X121491429Y80240286D01*
X121491429Y81192667D02*
X121586667Y81240286D01*
X121777144Y81240286D01*
X121872382Y81192667D01*
X121920001Y81145048D01*
X121967620Y81049810D01*
X121967620Y80764095D01*
X121920001Y80668857D01*
X121872382Y80621238D01*
X121777144Y80573619D01*
X121586667Y80573619D01*
X121491429Y80621238D01*
X122396191Y80573619D02*
X122396191Y81240286D01*
X122396191Y81573619D02*
X122348572Y81526000D01*
X122396191Y81478381D01*
X122443810Y81526000D01*
X122396191Y81573619D01*
X122396191Y81478381D01*
X122872381Y81240286D02*
X122872381Y80573619D01*
X122872381Y81145048D02*
X122920000Y81192667D01*
X123015238Y81240286D01*
X123158096Y81240286D01*
X123253334Y81192667D01*
X123300953Y81097429D01*
X123300953Y80573619D01*
X121062858Y1833619D02*
X120491429Y1833619D01*
X120777143Y1833619D02*
X120777143Y2833619D01*
X120681905Y2690762D01*
X120586667Y2595524D01*
X120491429Y2547905D01*
X121491429Y2500286D02*
X121491429Y1500286D01*
X121491429Y2452667D02*
X121586667Y2500286D01*
X121777144Y2500286D01*
X121872382Y2452667D01*
X121920001Y2405048D01*
X121967620Y2309810D01*
X121967620Y2024095D01*
X121920001Y1928857D01*
X121872382Y1881238D01*
X121777144Y1833619D01*
X121586667Y1833619D01*
X121491429Y1881238D01*
X122396191Y1833619D02*
X122396191Y2500286D01*
X122396191Y2833619D02*
X122348572Y2786000D01*
X122396191Y2738381D01*
X122443810Y2786000D01*
X122396191Y2833619D01*
X122396191Y2738381D01*
X122872381Y2500286D02*
X122872381Y1833619D01*
X122872381Y2405048D02*
X122920000Y2452667D01*
X123015238Y2500286D01*
X123158096Y2500286D01*
X123253334Y2452667D01*
X123300953Y2357429D01*
X123300953Y1833619D01*
X4222858Y1833619D02*
X3651429Y1833619D01*
X3937143Y1833619D02*
X3937143Y2833619D01*
X3841905Y2690762D01*
X3746667Y2595524D01*
X3651429Y2547905D01*
X4651429Y2500286D02*
X4651429Y1500286D01*
X4651429Y2452667D02*
X4746667Y2500286D01*
X4937144Y2500286D01*
X5032382Y2452667D01*
X5080001Y2405048D01*
X5127620Y2309810D01*
X5127620Y2024095D01*
X5080001Y1928857D01*
X5032382Y1881238D01*
X4937144Y1833619D01*
X4746667Y1833619D01*
X4651429Y1881238D01*
X5556191Y1833619D02*
X5556191Y2500286D01*
X5556191Y2833619D02*
X5508572Y2786000D01*
X5556191Y2738381D01*
X5603810Y2786000D01*
X5556191Y2833619D01*
X5556191Y2738381D01*
X6032381Y2500286D02*
X6032381Y1833619D01*
X6032381Y2405048D02*
X6080000Y2452667D01*
X6175238Y2500286D01*
X6318096Y2500286D01*
X6413334Y2452667D01*
X6460953Y2357429D01*
X6460953Y1833619D01*
X4222858Y80573619D02*
X3651429Y80573619D01*
X3937143Y80573619D02*
X3937143Y81573619D01*
X3841905Y81430762D01*
X3746667Y81335524D01*
X3651429Y81287905D01*
X4651429Y81240286D02*
X4651429Y80240286D01*
X4651429Y81192667D02*
X4746667Y81240286D01*
X4937144Y81240286D01*
X5032382Y81192667D01*
X5080001Y81145048D01*
X5127620Y81049810D01*
X5127620Y80764095D01*
X5080001Y80668857D01*
X5032382Y80621238D01*
X4937144Y80573619D01*
X4746667Y80573619D01*
X4651429Y80621238D01*
X5556191Y80573619D02*
X5556191Y81240286D01*
X5556191Y81573619D02*
X5508572Y81526000D01*
X5556191Y81478381D01*
X5603810Y81526000D01*
X5556191Y81573619D01*
X5556191Y81478381D01*
X6032381Y81240286D02*
X6032381Y80573619D01*
X6032381Y81145048D02*
X6080000Y81192667D01*
X6175238Y81240286D01*
X6318096Y81240286D01*
X6413334Y81192667D01*
X6460953Y81097429D01*
X6460953Y80573619D01*
X4222858Y47553619D02*
X3651429Y47553619D01*
X3937143Y47553619D02*
X3937143Y48553619D01*
X3841905Y48410762D01*
X3746667Y48315524D01*
X3651429Y48267905D01*
X4651429Y48220286D02*
X4651429Y47220286D01*
X4651429Y48172667D02*
X4746667Y48220286D01*
X4937144Y48220286D01*
X5032382Y48172667D01*
X5080001Y48125048D01*
X5127620Y48029810D01*
X5127620Y47744095D01*
X5080001Y47648857D01*
X5032382Y47601238D01*
X4937144Y47553619D01*
X4746667Y47553619D01*
X4651429Y47601238D01*
X5556191Y47553619D02*
X5556191Y48220286D01*
X5556191Y48553619D02*
X5508572Y48506000D01*
X5556191Y48458381D01*
X5603810Y48506000D01*
X5556191Y48553619D01*
X5556191Y48458381D01*
X6032381Y48220286D02*
X6032381Y47553619D01*
X6032381Y48125048D02*
X6080000Y48172667D01*
X6175238Y48220286D01*
X6318096Y48220286D01*
X6413334Y48172667D01*
X6460953Y48077429D01*
X6460953Y47553619D01*
X121062858Y47553619D02*
X120491429Y47553619D01*
X120777143Y47553619D02*
X120777143Y48553619D01*
X120681905Y48410762D01*
X120586667Y48315524D01*
X120491429Y48267905D01*
X121491429Y48220286D02*
X121491429Y47220286D01*
X121491429Y48172667D02*
X121586667Y48220286D01*
X121777144Y48220286D01*
X121872382Y48172667D01*
X121920001Y48125048D01*
X121967620Y48029810D01*
X121967620Y47744095D01*
X121920001Y47648857D01*
X121872382Y47601238D01*
X121777144Y47553619D01*
X121586667Y47553619D01*
X121491429Y47601238D01*
X122396191Y47553619D02*
X122396191Y48220286D01*
X122396191Y48553619D02*
X122348572Y48506000D01*
X122396191Y48458381D01*
X122443810Y48506000D01*
X122396191Y48553619D01*
X122396191Y48458381D01*
X122872381Y48220286D02*
X122872381Y47553619D01*
X122872381Y48125048D02*
X122920000Y48172667D01*
X123015238Y48220286D01*
X123158096Y48220286D01*
X123253334Y48172667D01*
X123300953Y48077429D01*
X123300953Y47553619D01*
M02*
