G04 #@! TF.FileFunction,Soldermask,Top*
%FSLAX46Y46*%
G04 Gerber Fmt 4.6, Leading zero omitted, Abs format (unit mm)*
G04 Created by KiCad (PCBNEW (2015-12-07 BZR 6352)-product) date Fri 22 Apr 2016 06:39:40 PM EDT*
%MOMM*%
G01*
G04 APERTURE LIST*
%ADD10C,0.100000*%
%ADD11R,2.076400X2.076400*%
%ADD12C,2.076400*%
%ADD13R,3.900120X3.900120*%
%ADD14O,2.700000X2.000000*%
%ADD15R,1.800000X1.800000*%
%ADD16C,1.800000*%
%ADD17R,2.300000X2.400000*%
%ADD18C,2.300000*%
%ADD19O,2.000000X2.700000*%
%ADD20C,2.398980*%
%ADD21O,2.000000X2.000000*%
%ADD22R,2.432000X2.432000*%
%ADD23O,2.432000X2.432000*%
%ADD24C,4.464000*%
G04 APERTURE END LIST*
D10*
D11*
X49530000Y81280000D03*
D12*
X49530000Y78740000D03*
X49530000Y73660000D03*
X49530000Y68580000D03*
X49530000Y66040000D03*
X57150000Y66040000D03*
X57150000Y68580000D03*
X57150000Y76200000D03*
X57150000Y78740000D03*
X57150000Y81280000D03*
D13*
X11430000Y31399480D03*
X11430000Y25400000D03*
X16129000Y28399740D03*
D14*
X82550000Y21350000D03*
X82550000Y18810000D03*
X82550000Y16270000D03*
X82550000Y13730000D03*
X82550000Y11190000D03*
X82550000Y8650000D03*
X82550000Y6110000D03*
X90170000Y6110000D03*
X90170000Y8650000D03*
X90170000Y11190000D03*
X90170000Y13730000D03*
X90170000Y16270000D03*
X90170000Y18810000D03*
X90170000Y21350000D03*
D11*
X80010000Y81280000D03*
D12*
X80010000Y78740000D03*
X80010000Y73660000D03*
X80010000Y68580000D03*
X80010000Y66040000D03*
X87630000Y66040000D03*
X87630000Y68580000D03*
X87630000Y76200000D03*
X87630000Y78740000D03*
X87630000Y81280000D03*
D14*
X31750000Y57150000D03*
X31750000Y54610000D03*
X31750000Y52070000D03*
X31750000Y49530000D03*
X31750000Y46990000D03*
X31750000Y44450000D03*
X31750000Y41910000D03*
X31750000Y39370000D03*
X39370000Y39370000D03*
X39370000Y41910000D03*
X39370000Y44450000D03*
X39370000Y46990000D03*
X39370000Y49530000D03*
X39370000Y52070000D03*
X39370000Y54610000D03*
X39370000Y57150000D03*
D15*
X77470000Y13730000D03*
D16*
X77470000Y8730000D03*
D15*
X77470000Y23890000D03*
D16*
X77470000Y28890000D03*
D15*
X38060000Y18970000D03*
D16*
X38060000Y13970000D03*
D15*
X60960000Y25400000D03*
D16*
X60960000Y30400000D03*
D15*
X90170000Y26430000D03*
D16*
X85170000Y26430000D03*
D17*
X62230000Y68580000D03*
D18*
X64770000Y68580000D03*
D17*
X62230000Y78740000D03*
D18*
X64770000Y78740000D03*
D19*
X55880000Y31750000D03*
X53340000Y31750000D03*
X50800000Y31750000D03*
X48260000Y31750000D03*
X45720000Y31750000D03*
X43180000Y31750000D03*
X40640000Y31750000D03*
X38100000Y31750000D03*
X35560000Y31750000D03*
X33020000Y31750000D03*
X30480000Y31750000D03*
X27940000Y31750000D03*
X25400000Y31750000D03*
X22860000Y31750000D03*
X22860000Y24130000D03*
X25400000Y24130000D03*
X27940000Y24130000D03*
X30480000Y24130000D03*
X33020000Y24130000D03*
X35560000Y24130000D03*
X38100000Y24130000D03*
X40640000Y24130000D03*
X43180000Y24130000D03*
X45720000Y24130000D03*
X48260000Y24130000D03*
X50800000Y24130000D03*
X53340000Y24130000D03*
X55880000Y24130000D03*
D20*
X80010000Y16270000D03*
X69850000Y16270000D03*
X80010000Y21350000D03*
X69850000Y21350000D03*
X36830000Y85090000D03*
X46990000Y85090000D03*
X59690000Y85090000D03*
X49530000Y85090000D03*
X67310000Y85090000D03*
X77470000Y85090000D03*
X90170000Y85090000D03*
X80010000Y85090000D03*
X62230000Y59690000D03*
X62230000Y49530000D03*
X64770000Y59690000D03*
X64770000Y49530000D03*
X104140000Y11430000D03*
X93980000Y11430000D03*
X120650000Y11430000D03*
X110490000Y11430000D03*
D21*
X96520000Y21590000D03*
X96520000Y16510000D03*
X104140000Y16510000D03*
X104140000Y21590000D03*
X113030000Y21590000D03*
X113030000Y16510000D03*
X120650000Y16510000D03*
X120650000Y21590000D03*
D19*
X43140000Y11430000D03*
X45680000Y11430000D03*
X48220000Y11430000D03*
X50760000Y11430000D03*
X50760000Y19050000D03*
X48220000Y19050000D03*
X45680000Y19050000D03*
X43140000Y19050000D03*
D14*
X49530000Y57150000D03*
X49530000Y54610000D03*
X49530000Y52070000D03*
X49530000Y49530000D03*
X49530000Y46990000D03*
X49530000Y44450000D03*
X49530000Y41910000D03*
X49530000Y39370000D03*
X57150000Y39370000D03*
X57150000Y41910000D03*
X57150000Y44450000D03*
X57150000Y46990000D03*
X57150000Y49530000D03*
X57150000Y52070000D03*
X57150000Y54610000D03*
X57150000Y57150000D03*
X69850000Y57150000D03*
X69850000Y54610000D03*
X69850000Y52070000D03*
X69850000Y49530000D03*
X69850000Y46990000D03*
X69850000Y44450000D03*
X69850000Y41910000D03*
X69850000Y39370000D03*
X77470000Y39370000D03*
X77470000Y41910000D03*
X77470000Y44450000D03*
X77470000Y46990000D03*
X77470000Y49530000D03*
X77470000Y52070000D03*
X77470000Y54610000D03*
X77470000Y57150000D03*
X87630000Y57150000D03*
X87630000Y54610000D03*
X87630000Y52070000D03*
X87630000Y49530000D03*
X87630000Y46990000D03*
X87630000Y44450000D03*
X87630000Y41910000D03*
X87630000Y39370000D03*
X95250000Y39370000D03*
X95250000Y41910000D03*
X95250000Y44450000D03*
X95250000Y46990000D03*
X95250000Y49530000D03*
X95250000Y52070000D03*
X95250000Y54610000D03*
X95250000Y57150000D03*
D11*
X39370000Y81280000D03*
D12*
X39370000Y78740000D03*
X39370000Y73660000D03*
X39370000Y68580000D03*
X39370000Y66040000D03*
X46990000Y66040000D03*
X46990000Y68580000D03*
X46990000Y76200000D03*
X46990000Y78740000D03*
X46990000Y81280000D03*
D11*
X69850000Y81280000D03*
D12*
X69850000Y78740000D03*
X69850000Y73660000D03*
X69850000Y68580000D03*
X69850000Y66040000D03*
X77470000Y66040000D03*
X77470000Y68580000D03*
X77470000Y76200000D03*
X77470000Y78740000D03*
X77470000Y81280000D03*
D20*
X58420000Y17780000D03*
X58420000Y7620000D03*
X55880000Y17780000D03*
X55880000Y7620000D03*
D22*
X45720000Y8890000D03*
D23*
X43180000Y8890000D03*
D24*
X121920000Y83820000D03*
X121920000Y5080000D03*
X5080000Y5080000D03*
X5080000Y83820000D03*
X5080000Y50800000D03*
X121920000Y50800000D03*
M02*
